<svg width="115" height="92" viewBox="0 0 115 92" fill="none" xmlns="http://www.w3.org/2000/svg">
<path d="M72.1038 15.881C71.3955 13.9985 70.2968 12.2872 68.88 10.8595C67.4633 9.4318 65.7604 8.32006 63.8834 7.59732L63.5965 7.48437C61.7153 6.74403 59.6987 6.41076 57.6794 6.50655C55.6601 6.60233 53.684 7.125 51.8814 8.04009C50.4283 8.77701 49.153 9.82122 48.1439 11.1003C47.1347 12.3794 46.416 13.8627 46.0374 15.4473C44.6955 21.1286 45.5698 26.688 47.3363 30.7113C47.3963 31.5224 47.3858 32.3372 47.3047 33.1465C47.2305 34.0123 47.0343 34.8633 46.7219 35.6743L42.0164 47.6988C41.4808 49.0768 41.5145 50.6111 42.1101 51.9642C42.7058 53.3173 43.8145 54.3784 45.1925 54.914C46.5705 55.4496 48.1048 55.4159 49.4579 54.8203C50.811 54.2246 51.8721 53.1159 52.4077 51.7379L57.0477 39.876C57.4196 38.9096 57.9544 38.0141 58.629 37.2284C59.0828 36.705 59.5647 36.2065 60.0725 35.7352C64.116 33.971 68.5662 30.4402 71.4306 25.2897C72.2181 23.8639 72.6861 22.284 72.8023 20.6594C72.9186 19.0348 72.6802 17.4044 72.1038 15.881ZM53.5508 38.5228L52.7624 40.5333C51.5367 40.347 50.3819 39.8405 49.4146 39.065L50.2097 37.0319C50.3894 36.555 50.5403 36.0676 50.6615 35.5726C51.1296 35.9885 51.6641 36.323 52.2428 36.562L52.5975 36.6998C53.1264 36.8922 53.6819 37.0019 54.2443 37.0251C53.981 37.5089 53.7494 38.0092 53.5508 38.5228ZM48.9153 50.3735C48.7318 50.8135 48.3836 51.1645 47.945 51.3514C47.5064 51.5383 47.0121 51.5464 46.5676 51.3739C46.1231 51.2015 45.7636 50.8622 45.5658 50.4284C45.368 49.9946 45.3475 49.5006 45.5088 49.052L48.014 42.6455C49.0443 43.3122 50.1812 43.7973 51.3754 44.0799L48.9153 50.3735ZM68.1551 23.4667C64.5859 29.88 58.0371 33.2933 54.6803 33.2933C54.4377 33.305 54.1949 33.276 53.9619 33.2074L53.6118 33.0696C51.8701 32.392 47.5916 25.1632 49.6811 16.3193C49.9324 15.2626 50.411 14.2734 51.0836 13.4205C51.7562 12.5677 52.6066 11.8717 53.5756 11.3811C54.9089 10.7035 56.3709 10.317 57.8649 10.2472C59.3588 10.1775 60.8505 10.4262 62.2411 10.9768L62.5348 11.0897C63.9193 11.6239 65.1754 12.4446 66.2206 13.498C67.2659 14.5514 68.0768 15.8139 68.6001 17.2025C68.9843 18.2165 69.1435 19.3019 69.0667 20.3836C68.9898 21.4652 68.6788 22.5172 68.1551 23.4667Z" fill="white"/>
<path d="M11.537 89.8916V78.56H15.5757C17.0188 78.56 18.0696 78.8603 18.7282 79.4608C19.3965 80.0515 19.7306 80.8457 19.7306 81.8433C19.7306 82.8409 19.3965 83.6399 18.7282 84.2404C18.0696 84.8311 17.0188 85.1265 15.5757 85.1265H13.1641V89.8916H11.537ZM13.1641 83.819H15.5031C16.4135 83.819 17.0672 83.6592 17.4643 83.3396C17.8711 83.02 18.0744 82.5212 18.0744 81.8433C18.0744 81.1653 17.8711 80.6666 17.4643 80.3469C17.0672 80.0273 16.4135 79.8675 15.5031 79.8675H13.1641V83.819ZM24.4264 90.1095C23.6807 90.1095 23.0463 89.9207 22.5233 89.5429C22.0003 89.1652 21.5984 88.6374 21.3175 87.9594C21.0463 87.2718 20.9107 86.4631 20.9107 85.5333C20.9107 84.6035 21.0463 83.7997 21.3175 83.1217C21.5984 82.4341 22.0003 81.9014 22.5233 81.5237C23.056 81.146 23.7 80.9571 24.4555 80.9571C25.1141 80.9571 25.6371 81.0975 26.0245 81.3784C26.4216 81.6496 26.6976 81.9595 26.8525 82.3082H27.2012V81.175H28.5959V89.8916H27.2012V88.7584H26.8525C26.6976 89.1071 26.4216 89.4219 26.0245 89.7027C25.6274 89.9739 25.0947 90.1095 24.4264 90.1095ZM24.7025 88.802C25.4288 88.802 26.0051 88.5018 26.4312 87.9013C26.8574 87.3008 27.0705 86.5115 27.0705 85.5333C27.0705 84.5551 26.8574 83.7658 26.4312 83.1653C26.0051 82.5648 25.4288 82.2646 24.7025 82.2646C23.9954 82.2646 23.4531 82.5503 23.0754 83.1217C22.6976 83.6931 22.5088 84.497 22.5088 85.5333C22.5088 86.5696 22.6976 87.3735 23.0754 87.9449C23.4531 88.5163 23.9954 88.802 24.7025 88.802ZM33.9822 90.1095C33.2365 90.1095 32.6021 89.9207 32.0791 89.5429C31.5561 89.1652 31.1542 88.6374 30.8733 87.9594C30.6021 87.2718 30.4665 86.4631 30.4665 85.5333C30.4665 84.6035 30.6021 83.7997 30.8733 83.1217C31.1542 82.4341 31.5513 81.9014 32.0646 81.5237C32.5876 81.146 33.2171 80.9571 33.9532 80.9571C34.5439 80.9571 35.0234 81.0733 35.3914 81.3058C35.7691 81.5382 36.05 81.8433 36.234 82.221H36.5827V78.2695H38.1516V89.8916H36.757V88.7584H36.4083C36.2534 89.1071 35.9773 89.4219 35.5803 89.7027C35.1832 89.9739 34.6505 90.1095 33.9822 90.1095ZM34.2582 88.802C34.9846 88.802 35.5609 88.5018 35.987 87.9013C36.4132 87.3008 36.6262 86.5115 36.6262 85.5333C36.6262 84.5551 36.4132 83.7658 35.987 83.1653C35.5609 82.5648 34.9846 82.2646 34.2582 82.2646C33.5512 82.2646 33.0089 82.5503 32.6311 83.1217C32.2534 83.6931 32.0646 84.497 32.0646 85.5333C32.0646 86.5696 32.2534 87.3735 32.6311 87.9449C33.0089 88.5163 33.5512 88.802 34.2582 88.802ZM43.9883 90.1095C42.7099 90.1095 41.7366 89.6931 41.0683 88.8601C40.4097 88.0175 40.0804 86.9086 40.0804 85.5333C40.0804 84.6229 40.2257 83.8287 40.5162 83.1508C40.8165 82.4631 41.2523 81.9256 41.8237 81.5382C42.4048 81.1508 43.1215 80.9571 43.9738 80.9571C45.1651 80.9571 46.0706 81.3445 46.6905 82.1193C47.32 82.8941 47.6348 84.0176 47.6348 85.4897V85.9401H41.6058C41.6542 86.7924 41.8722 87.4945 42.2596 88.0466C42.6566 88.589 43.2378 88.8601 44.0029 88.8601C44.5549 88.8601 45.0004 88.7052 45.3394 88.3953C45.6784 88.0853 45.9205 87.6543 46.0658 87.1023H47.5476C47.4217 87.6931 47.2135 88.2161 46.9229 88.6713C46.6324 89.1168 46.245 89.4703 45.7607 89.7318C45.2765 89.9836 44.6857 90.1095 43.9883 90.1095ZM41.6203 84.8069H46.1094C46.0803 83.9643 45.8769 83.3203 45.4992 82.8748C45.1215 82.4292 44.6082 82.2065 43.9593 82.2065C43.2717 82.2065 42.7293 82.4341 42.3322 82.8893C41.9448 83.3445 41.7075 83.9837 41.6203 84.8069ZM50.1851 89.8916C49.972 89.6301 49.7977 89.3153 49.6621 88.9473C49.5362 88.5793 49.4732 88.0272 49.4732 87.2912V78.2695H51.0422V87.0878C51.0422 87.8626 51.1245 88.4437 51.2892 88.8311C51.4635 89.2185 51.6717 89.5429 51.9139 89.8044V89.8916H50.1851ZM61.434 90.1095C59.8747 90.1095 58.6544 89.5962 57.773 88.5696C56.9014 87.5333 56.4655 86.0854 56.4655 84.2258C56.4655 82.3566 56.9062 80.9087 57.7876 79.8821C58.6689 78.8554 59.8844 78.3421 61.434 78.3421C62.3347 78.3421 63.1144 78.5165 63.7729 78.8651C64.4412 79.2041 64.9691 79.6835 65.3565 80.3034C65.7535 80.9232 65.9908 81.6496 66.0683 82.4825H64.4267C64.3298 81.6205 64.0151 80.9329 63.4824 80.4196C62.9594 79.9063 62.2669 79.6496 61.4049 79.6496C60.3493 79.6496 59.5357 80.0515 58.9643 80.8554C58.4026 81.6496 58.1217 82.7731 58.1217 84.2258C58.1217 85.6883 58.4074 86.8166 58.9788 87.6108C59.5599 88.4049 60.3638 88.802 61.3904 88.802C62.3008 88.802 63.0127 88.5308 63.526 87.9885C64.049 87.4461 64.3492 86.773 64.4267 85.9691H66.0683C65.9908 86.7924 65.7535 87.5188 65.3565 88.1483C64.9691 88.7681 64.4461 89.2524 63.7875 89.601C63.1289 89.94 62.3444 90.1095 61.434 90.1095ZM71.1741 90.1095C69.8472 90.1095 68.8594 89.6979 68.2105 88.8747C67.5712 88.0417 67.2516 86.928 67.2516 85.5333C67.2516 84.1387 67.5712 83.0297 68.2105 82.2065C68.8594 81.3736 69.8472 80.9571 71.1741 80.9571C72.501 80.9571 73.484 81.3736 74.1232 82.2065C74.7721 83.0297 75.0966 84.1387 75.0966 85.5333C75.0966 86.928 74.7721 88.0417 74.1232 88.8747C73.484 89.6979 72.501 90.1095 71.1741 90.1095ZM71.1741 88.8311C71.978 88.8311 72.5639 88.5357 72.9319 87.9449C73.3097 87.3541 73.4985 86.5502 73.4985 85.5333C73.4985 84.5164 73.3097 83.7125 72.9319 83.1217C72.5639 82.5309 71.978 82.2355 71.1741 82.2355C70.3702 82.2355 69.7794 82.5309 69.4017 83.1217C69.0337 83.7125 68.8497 84.5164 68.8497 85.5333C68.8497 86.5502 69.0337 87.3541 69.4017 87.9449C69.7794 88.5357 70.3702 88.8311 71.1741 88.8311ZM79.7958 90.1095C78.7789 90.1095 78.0379 89.7948 77.5731 89.1652C77.1179 88.5357 76.8903 87.7367 76.8903 86.7682V81.175H78.4593V86.434C78.4593 87.1895 78.5948 87.7706 78.866 88.1773C79.1372 88.5744 79.5585 88.773 80.1299 88.773C80.8466 88.773 81.3987 88.4969 81.7861 87.9449C82.1832 87.3832 82.3817 86.6907 82.3817 85.8674V81.175H83.9507V89.8916H82.556V88.5841H82.2074C82.0524 89.0684 81.7667 89.4461 81.3503 89.7173C80.9435 89.9788 80.4253 90.1095 79.7958 90.1095ZM86.4842 89.8916V81.175H87.8788V82.6568H88.2275C88.2856 82.4147 88.3873 82.1726 88.5326 81.9305C88.6779 81.6883 88.9103 81.4898 89.2299 81.3348C89.5495 81.1702 89.9999 81.0879 90.581 81.0879H90.8715V82.5697H90.4357C89.564 82.5697 88.949 82.7973 88.5907 83.2525C88.2323 83.698 88.0532 84.4002 88.0532 85.359V89.8916H86.4842ZM93.6395 89.8916C93.4264 89.6301 93.2521 89.3153 93.1165 88.9473C92.9906 88.5793 92.9276 88.0272 92.9276 87.2912V82.3953H91.7364V81.175H92.9567V78.9959H94.4676V81.175H95.9494V82.3953H94.4966V87.0442C94.4966 87.8384 94.579 88.434 94.7436 88.8311C94.9179 89.2185 95.1262 89.5429 95.3683 89.8044V89.8916H93.6395ZM100.488 90.1095C99.6838 90.1095 99.0204 89.9691 98.4974 89.6882C97.9744 89.3977 97.5822 89.0248 97.3207 88.5696C97.0592 88.1047 96.9139 87.6156 96.8848 87.1023H98.4248C98.4538 87.3928 98.5458 87.6786 98.7008 87.9594C98.8558 88.2306 99.0834 88.4534 99.3836 88.6277C99.6838 88.802 100.066 88.8892 100.531 88.8892C101.045 88.8892 101.442 88.7827 101.723 88.5696C102.003 88.3468 102.144 88.0563 102.144 87.6979C102.144 87.388 102.032 87.1265 101.81 86.9134C101.597 86.6907 101.263 86.497 100.807 86.3323L99.7758 85.9691C99.311 85.7948 98.8897 85.6059 98.5119 85.4026C98.1439 85.1895 97.8485 84.928 97.6257 84.6181C97.403 84.2985 97.2916 83.8965 97.2916 83.4123C97.2916 82.6665 97.558 82.0709 98.0906 81.6254C98.6233 81.1799 99.3545 80.9571 100.284 80.9571C100.953 80.9571 101.505 81.0733 101.94 81.3058C102.386 81.5382 102.725 81.8578 102.957 82.2646C103.19 82.6617 103.325 83.112 103.364 83.6157H101.882C101.844 83.2476 101.698 82.9183 101.447 82.6278C101.195 82.3275 100.783 82.1774 100.212 82.1774C99.7565 82.1774 99.4078 82.2791 99.1657 82.4825C98.9236 82.6762 98.8025 82.9425 98.8025 83.2815C98.8025 83.6108 98.9187 83.882 99.1512 84.0951C99.3836 84.3081 99.7323 84.5018 100.197 84.6762L101.229 85.0248C101.693 85.1992 102.11 85.3929 102.478 85.6059C102.846 85.8093 103.132 86.066 103.335 86.3759C103.548 86.6858 103.655 87.0829 103.655 87.5672C103.655 88.3129 103.384 88.9231 102.841 89.3977C102.299 89.8722 101.514 90.1095 100.488 90.1095Z" fill="white"/>
</svg>
