<svg width="115" height="92" viewBox="0 0 115 92" fill="none" xmlns="http://www.w3.org/2000/svg">
<path d="M71.3874 48.2685L70.3003 14.337C70.266 13.1018 69.7499 11.9291 68.8623 11.0695C67.9746 10.2099 66.786 9.73167 65.5503 9.73698H48.6059C47.3703 9.73167 46.1816 10.2099 45.294 11.0695C44.4064 11.9291 43.8902 13.1018 43.8559 14.337L42.7689 48.2685H37.0781V52.0462H77.0781V48.2685H71.3874ZM46.5485 48.2685L47.6337 14.4574C47.6409 14.2042 47.7469 13.9639 47.9289 13.7878C48.1109 13.6117 48.3545 13.5137 48.6078 13.5148H65.5522C65.8048 13.5147 66.0475 13.6131 66.2287 13.7891C66.4099 13.9651 66.5153 14.2048 66.5226 14.4574L67.6059 48.2685H46.5485Z" fill="white"/>
<path d="M60.617 33.3333L60.3095 33.437C59.7329 33.6292 59.1095 33.6302 58.5323 33.4397C57.9551 33.2491 57.4548 32.8773 57.1058 32.3796L54.867 29.1814C54.5189 28.6834 54.341 28.0863 54.3597 27.479C54.3783 26.8717 54.5926 26.2867 54.9707 25.811L55.1725 25.5573C55.4815 25.1695 55.6567 24.6921 55.6721 24.1965C55.6874 23.7009 55.5421 23.2136 55.2577 22.8073L54.1466 21.224L50.8336 25.4203C50.458 25.8956 50.2458 26.4794 50.2285 27.0849C50.2111 27.6904 50.3896 28.2854 50.7373 28.7814L56.0632 36.4036C56.4104 36.9005 56.9086 37.272 57.4837 37.4632C58.0589 37.6544 58.6804 37.6549 59.2558 37.4647L64.3373 35.7888L63.2262 34.2055C62.9434 33.7983 62.5366 33.4934 62.0664 33.3362C61.5962 33.1791 61.0878 33.178 60.617 33.3333Z" fill="white"/>
<path d="M11.6532 89.8916V78.56H15.6918C17.1349 78.56 18.1857 78.8603 18.8443 79.4608C19.5126 80.0515 19.8467 80.8457 19.8467 81.8433C19.8467 82.8409 19.5126 83.6399 18.8443 84.2404C18.1857 84.8311 17.1349 85.1265 15.6918 85.1265H13.2802V89.8916H11.6532ZM13.2802 83.819H15.6192C16.5296 83.819 17.1833 83.6592 17.5804 83.3396C17.9872 83.02 18.1906 82.5212 18.1906 81.8433C18.1906 81.1653 17.9872 80.6666 17.5804 80.3469C17.1833 80.0273 16.5296 79.8675 15.6192 79.8675H13.2802V83.819ZM21.6225 89.8916V78.2695H23.1915V82.3082H23.5402C23.7532 81.8723 24.0438 81.5382 24.4118 81.3058C24.7799 81.0733 25.2447 80.9571 25.8065 80.9571C26.804 80.9571 27.5304 81.2719 27.9856 81.9014C28.4505 82.5212 28.6829 83.3203 28.6829 84.2985V89.8916H27.114V84.6326C27.114 83.8772 26.9784 83.3009 26.7072 82.9038C26.436 82.497 26.0147 82.2936 25.4433 82.2936C24.7363 82.2936 24.1842 82.5745 23.7871 83.1362C23.39 83.6883 23.1915 84.3759 23.1915 85.1992V89.8916H21.6225ZM34.398 90.1095C33.0711 90.1095 32.0832 89.6979 31.4343 88.8747C30.7951 88.0417 30.4755 86.928 30.4755 85.5333C30.4755 84.1387 30.7951 83.0297 31.4343 82.2065C32.0832 81.3736 33.0711 80.9571 34.398 80.9571C35.7248 80.9571 36.7079 81.3736 37.3471 82.2065C37.996 83.0297 38.3204 84.1387 38.3204 85.5333C38.3204 86.928 37.996 88.0417 37.3471 88.8747C36.7079 89.6979 35.7248 90.1095 34.398 90.1095ZM34.398 88.8311C35.2018 88.8311 35.7878 88.5357 36.1558 87.9449C36.5335 87.3541 36.7224 86.5502 36.7224 85.5333C36.7224 84.5164 36.5335 83.7125 36.1558 83.1217C35.7878 82.5309 35.2018 82.2355 34.398 82.2355C33.5941 82.2355 33.0033 82.5309 32.6256 83.1217C32.2576 83.7125 32.0736 84.5164 32.0736 85.5333C32.0736 86.5502 32.2576 87.3541 32.6256 87.9449C33.0033 88.5357 33.5941 88.8311 34.398 88.8311ZM40.2304 89.8916V81.175H41.625V82.4825H41.9737C42.1383 81.9983 42.424 81.6254 42.8308 81.3639C43.2376 81.0927 43.7557 80.9571 44.3853 80.9571C45.4022 80.9571 46.1383 81.2719 46.5935 81.9014C47.0584 82.5212 47.2908 83.3203 47.2908 84.2985V89.8916H45.7218V84.6326C45.7218 83.8772 45.5862 83.3009 45.315 82.9038C45.0439 82.497 44.6226 82.2936 44.0511 82.2936C43.3441 82.2936 42.7921 82.5745 42.395 83.1362C41.9979 83.6883 41.7994 84.3759 41.7994 85.1992V89.8916H40.2304ZM52.9913 90.1095C51.7129 90.1095 50.7395 89.6931 50.0713 88.8601C49.4127 88.0175 49.0834 86.9086 49.0834 85.5333C49.0834 84.6229 49.2287 83.8287 49.5192 83.1508C49.8194 82.4631 50.2553 81.9256 50.8267 81.5382C51.4078 81.1508 52.1245 80.9571 52.9768 80.9571C54.1681 80.9571 55.0736 81.3445 55.6935 82.1193C56.323 82.8941 56.6378 84.0176 56.6378 85.4897V85.9401H50.6088C50.6572 86.7924 50.8751 87.4945 51.2625 88.0466C51.6596 88.589 52.2407 88.8601 53.0058 88.8601C53.5579 88.8601 54.0034 88.7052 54.3424 88.3953C54.6814 88.0853 54.9235 87.6543 55.0688 87.1023H56.5506C56.4247 87.6931 56.2165 88.2161 55.9259 88.6713C55.6353 89.1168 55.2479 89.4703 54.7637 89.7318C54.2794 89.9836 53.6886 90.1095 52.9913 90.1095ZM50.6233 84.8069H55.1124C55.0833 83.9643 54.8799 83.3203 54.5022 82.8748C54.1245 82.4292 53.6112 82.2065 52.9623 82.2065C52.2746 82.2065 51.7323 82.4341 51.3352 82.8893C50.9478 83.3445 50.7105 83.9837 50.6233 84.8069ZM62.097 89.8916V78.56H65.9904C67.3172 78.56 68.2906 78.8119 68.9104 79.3155C69.54 79.8094 69.8547 80.4729 69.8547 81.3058C69.8547 81.8288 69.7143 82.2936 69.4334 82.7004C69.1622 83.1072 68.7409 83.3784 68.1695 83.514V83.8626C68.8959 83.9885 69.4431 84.2888 69.8111 84.7633C70.1889 85.2282 70.3777 85.8335 70.3777 86.5793C70.3777 87.5672 70.0387 88.3662 69.3608 88.9764C68.6828 89.5865 67.6368 89.8916 66.2228 89.8916H62.097ZM63.695 88.5841H66.2083C67.0993 88.5841 67.7434 88.4049 68.1405 88.0466C68.5472 87.6786 68.7506 87.1604 68.7506 86.4921C68.7506 85.8432 68.5521 85.3396 68.155 84.9813C67.7579 84.6229 67.1187 84.4437 66.2373 84.4437H63.695V88.5841ZM63.695 83.1798H66.0194C66.7749 83.1798 67.3366 83.0442 67.7046 82.7731C68.0727 82.5019 68.2567 82.0854 68.2567 81.5237C68.2567 80.4196 67.5109 79.8675 66.0194 79.8675H63.695V83.1798ZM75.5294 90.1095C74.2025 90.1095 73.2146 89.6979 72.5657 88.8747C71.9265 88.0417 71.6069 86.928 71.6069 85.5333C71.6069 84.1387 71.9265 83.0297 72.5657 82.2065C73.2146 81.3736 74.2025 80.9571 75.5294 80.9571C76.8562 80.9571 77.8393 81.3736 78.4785 82.2065C79.1274 83.0297 79.4518 84.1387 79.4518 85.5333C79.4518 86.928 79.1274 88.0417 78.4785 88.8747C77.8393 89.6979 76.8562 90.1095 75.5294 90.1095ZM75.5294 88.8311C76.3332 88.8311 76.9192 88.5357 77.2872 87.9449C77.6649 87.3541 77.8538 86.5502 77.8538 85.5333C77.8538 84.5164 77.6649 83.7125 77.2872 83.1217C76.9192 82.5309 76.3332 82.2355 75.5294 82.2355C74.7255 82.2355 74.1347 82.5309 73.757 83.1217C73.389 83.7125 73.2049 84.5164 73.2049 85.5333C73.2049 86.5502 73.389 87.3541 73.757 87.9449C74.1347 88.5357 74.7255 88.8311 75.5294 88.8311ZM84.6886 90.1095C83.3617 90.1095 82.3738 89.6979 81.7249 88.8747C81.0857 88.0417 80.7661 86.928 80.7661 85.5333C80.7661 84.1387 81.0857 83.0297 81.7249 82.2065C82.3738 81.3736 83.3617 80.9571 84.6886 80.9571C86.0154 80.9571 86.9985 81.3736 87.6377 82.2065C88.2866 83.0297 88.611 84.1387 88.611 85.5333C88.611 86.928 88.2866 88.0417 87.6377 88.8747C86.9985 89.6979 86.0154 90.1095 84.6886 90.1095ZM84.6886 88.8311C85.4924 88.8311 86.0784 88.5357 86.4464 87.9449C86.8241 87.3541 87.013 86.5502 87.013 85.5333C87.013 84.5164 86.8241 83.7125 86.4464 83.1217C86.0784 82.5309 85.4924 82.2355 84.6886 82.2355C83.8847 82.2355 83.2939 82.5309 82.9162 83.1217C82.5482 83.7125 82.3642 84.5164 82.3642 85.5333C82.3642 86.5502 82.5482 87.3541 82.9162 87.9449C83.2939 88.5357 83.8847 88.8311 84.6886 88.8311ZM91.6105 89.8916C91.3975 89.6301 91.2231 89.3153 91.0876 88.9473C90.9616 88.5793 90.8987 88.0272 90.8987 87.2912V82.3953H89.7074V81.175H90.9277V78.9959H92.4386V81.175H93.9204V82.3953H92.4677V87.0442C92.4677 87.8384 92.55 88.434 92.7146 88.8311C92.889 89.2185 93.0972 89.5429 93.3393 89.8044V89.8916H91.6105ZM95.6113 89.8916V78.2695H97.1803V82.3082H97.529C97.742 81.8723 98.0326 81.5382 98.4006 81.3058C98.7687 81.0733 99.2335 80.9571 99.7953 80.9571C100.793 80.9571 101.519 81.2719 101.974 81.9014C102.439 82.5212 102.672 83.3203 102.672 84.2985V89.8916H101.103V84.6326C101.103 83.8772 100.967 83.3009 100.696 82.9038C100.425 82.497 100.004 82.2936 99.4321 82.2936C98.7251 82.2936 98.173 82.5745 97.7759 83.1362C97.3789 83.6883 97.1803 84.3759 97.1803 85.1992V89.8916H95.6113Z" fill="white"/>
</svg>
