<svg width="115" height="92" viewBox="0 0 115 92" fill="none" xmlns="http://www.w3.org/2000/svg">
<path d="M27.4057 37.5597L45.508 40.1782C45.557 40.1824 45.6062 40.1824 45.6552 40.1782C45.9055 40.1784 46.1477 40.0889 46.3377 39.9259C46.5278 39.7629 46.6531 39.5371 46.6909 39.2896L47.6601 33.0001C47.6821 32.8584 47.6745 32.7136 47.6377 32.575C47.6009 32.4364 47.5357 32.3069 47.4462 32.1948C47.3581 32.082 47.2479 31.9883 47.1223 31.9196C46.9967 31.8508 46.8585 31.8084 46.7159 31.7949L38.4965 31.1174L50.348 19.8712C50.4496 19.7723 50.5303 19.654 50.5852 19.5232C50.64 19.3925 50.668 19.2521 50.6674 19.1103V14.3675C50.6674 14.1136 50.575 13.8684 50.4073 13.6778C50.2397 13.4871 50.0084 13.3641 49.7566 13.3317L31.857 10.902C31.5928 10.8644 31.3243 10.9299 31.1072 11.0851C30.89 11.2402 30.7409 11.4729 30.6908 11.735L29.5273 17.9524C29.5013 18.0908 29.5036 18.233 29.5342 18.3704C29.5647 18.5079 29.6228 18.6377 29.705 18.7521C29.7852 18.8665 29.8879 18.9635 30.0067 19.037C30.1256 19.1105 30.2582 19.1591 30.3964 19.1797L37.7356 20.2405L26.7976 31.3479C26.6101 31.5456 26.5065 31.8084 26.5088 32.0809V36.5239C26.5095 36.7753 26.6004 37.0182 26.765 37.2083C26.9296 37.3984 27.157 37.5231 27.4057 37.5597ZM28.6026 32.5086L40.6902 20.2349C40.826 20.0968 40.921 19.9238 40.9646 19.7351C41.0082 19.5463 40.9987 19.3492 40.9372 19.1655C40.8757 18.9818 40.7646 18.8187 40.6161 18.6943C40.4676 18.5698 40.2876 18.4889 40.0959 18.4605L31.7848 17.2637L32.5623 13.1234L48.5764 15.2866V18.6605L35.3503 31.2257C35.2043 31.3651 35.1015 31.5436 35.0544 31.7399C35.0072 31.9362 35.0177 32.1419 35.0845 32.3324C35.1514 32.5229 35.2717 32.6901 35.4311 32.8139C35.5906 32.9378 35.7823 33.013 35.9834 33.0306L45.4247 33.8081L44.786 37.9734L28.6026 35.6159V32.5086Z" fill="white"/>
<path d="M68.0172 33.3666V29.479C68.0173 29.2256 67.9253 28.9807 67.7582 28.7902C67.5911 28.5996 67.3605 28.4763 67.1092 28.4433L52.3891 26.4523C52.125 26.4154 51.8568 26.4812 51.6399 26.6362C51.4229 26.7912 51.2736 27.0235 51.2228 27.2853L50.2648 32.3781C50.2387 32.517 50.2409 32.6597 50.2714 32.7977C50.3019 32.9358 50.36 33.0662 50.4422 33.1811C50.5245 33.2961 50.6292 33.3932 50.75 33.4666C50.8708 33.54 51.0052 33.5881 51.1451 33.6082L56.8154 34.4412L48.0795 43.2966C47.9837 43.3931 47.9079 43.5075 47.8565 43.6333C47.805 43.7591 47.7789 43.8938 47.7796 44.0297V47.6951C47.7796 47.9467 47.8703 48.1899 48.035 48.3801C48.1997 48.5703 48.4275 48.6948 48.6765 48.7309L63.5576 50.8885C63.6075 50.8926 63.6576 50.8926 63.7075 50.8885C63.9578 50.8882 64.1996 50.7984 64.3895 50.6355C64.5794 50.4726 64.7049 50.2472 64.7433 49.9999L65.5375 44.8294C65.5586 44.6873 65.5505 44.5423 65.5138 44.4034C65.477 44.2645 65.4123 44.1345 65.3237 44.0214C65.235 43.9083 65.1238 43.8149 64.9971 43.747C64.8704 43.6791 64.7311 43.6383 64.5878 43.6271L58.2455 43.1133L67.6868 34.1386C67.7918 34.0418 67.8755 33.9241 67.9324 33.7931C67.9893 33.6621 68.0182 33.5206 68.0172 33.3777V33.3666ZM65.9235 32.9168L55.1076 43.1911C54.9612 43.3303 54.8582 43.5089 54.811 43.7053C54.7638 43.9018 54.7744 44.1077 54.8417 44.2982C54.9089 44.4887 55.0298 44.6557 55.1899 44.7791C55.3499 44.9024 55.5422 44.9768 55.7435 44.9933L63.2966 45.6208L62.8328 48.667L49.8761 46.7927V44.4684L59.7616 34.4301C59.8978 34.2922 59.9929 34.1191 60.0365 33.9303C60.0801 33.7414 60.0704 33.5442 60.0085 33.3605C59.9466 33.1769 59.835 33.014 59.686 32.89C59.537 32.7661 59.3565 32.6859 59.1646 32.6585L52.5252 31.6922L53.0972 28.6543L65.9235 30.3871V32.9168Z" fill="white"/>
<path d="M88.4325 22.9284L73.7152 20.9374C73.4506 20.9011 73.182 20.967 72.9643 21.1218C72.7465 21.2766 72.596 21.5086 72.5434 21.7705L71.5881 26.8604C71.5625 26.9997 71.565 27.1428 71.5956 27.2811C71.6261 27.4194 71.684 27.5502 71.7659 27.6657C71.8482 27.7803 71.9529 27.8771 72.0736 27.9501C72.1944 28.0231 72.3287 28.0709 72.4684 28.0906L78.1387 28.9236L69.4028 37.7901C69.2106 37.986 69.1021 38.2488 69.1001 38.5232V42.1831C69.1002 42.4354 69.1912 42.6793 69.3564 42.87C69.5216 43.0607 69.75 43.1856 69.9998 43.2216L84.8781 45.3681C85.1512 45.4079 85.429 45.3379 85.6507 45.1735C85.8724 45.0091 86.0199 44.7635 86.0611 44.4906L86.858 39.3174C86.8805 39.1758 86.8733 39.0312 86.837 38.8926C86.8006 38.754 86.7359 38.6244 86.647 38.5121C86.5577 38.3994 86.4465 38.306 86.3199 38.2378C86.1934 38.1695 86.0543 38.1277 85.9111 38.115L79.5688 37.5929L89.0101 28.621C89.1126 28.5231 89.1943 28.4055 89.2501 28.2752C89.3059 28.1449 89.3348 28.0046 89.335 27.8629V23.9531C89.3321 23.7022 89.2396 23.4607 89.074 23.2722C88.9084 23.0838 88.6809 22.9608 88.4325 22.9257V22.9284ZM87.244 24.8722V27.4047L76.4282 37.679C76.2817 37.8182 76.1787 37.9968 76.1315 38.1933C76.0843 38.3897 76.095 38.5956 76.1622 38.7862C76.2294 38.9767 76.3504 39.1437 76.5104 39.267C76.6704 39.3903 76.8627 39.4647 77.0641 39.4812L84.6171 40.1115L84.1506 43.1466L71.1966 41.2695V38.948L81.0822 28.9097C81.2163 28.771 81.3097 28.598 81.3521 28.4097C81.3945 28.2215 81.3844 28.0252 81.3228 27.8423C81.2611 27.6594 81.1504 27.497 81.0027 27.3728C80.8549 27.2486 80.6759 27.1674 80.4852 27.1381L73.8485 26.1801L74.4178 23.1422" fill="white"/>
<path d="M20.1409 89.8916V78.56H24.3685C25.3273 78.56 26.0973 78.6956 26.6784 78.9668C27.2595 79.238 27.6808 79.6012 27.9423 80.0564C28.2038 80.5116 28.3345 81.0201 28.3345 81.5818C28.3345 82.3179 28.1263 82.9377 27.7098 83.4413C27.3031 83.945 26.6977 84.2936 25.8939 84.4873L28.6541 89.8044V89.8916H26.9399L24.2813 84.7052H21.739V89.8916H20.1409ZM21.739 83.4559H24.2668C25.1384 83.4559 25.7583 83.3009 26.1263 82.991C26.4944 82.6714 26.6784 82.2259 26.6784 81.6544C26.6784 81.0733 26.4944 80.6327 26.1263 80.3324C25.7583 80.0225 25.1384 79.8675 24.2668 79.8675H21.739V83.4559ZM33.5588 90.1095C32.2804 90.1095 31.307 89.6931 30.6387 88.8601C29.9802 88.0175 29.6509 86.9086 29.6509 85.5333C29.6509 84.6229 29.7961 83.8287 30.0867 83.1508C30.3869 82.4631 30.8228 81.9256 31.3942 81.5382C31.9753 81.1508 32.692 80.9571 33.5443 80.9571C34.7355 80.9571 35.6411 81.3445 36.2609 82.1193C36.8905 82.8941 37.2052 84.0176 37.2052 85.4897V85.9401H31.1763C31.2247 86.7924 31.4426 87.4945 31.83 88.0466C32.2271 88.589 32.8082 88.8601 33.5733 88.8601C34.1254 88.8601 34.5709 88.7052 34.9099 88.3953C35.2488 88.0853 35.491 87.6543 35.6363 87.1023H37.1181C36.9922 87.6931 36.7839 88.2161 36.4934 88.6713C36.2028 89.1168 35.8154 89.4703 35.3312 89.7318C34.8469 89.9836 34.2561 90.1095 33.5588 90.1095ZM31.1908 84.8069H35.6798C35.6508 83.9643 35.4474 83.3203 35.0697 82.8748C34.692 82.4292 34.1786 82.2065 33.5297 82.2065C32.8421 82.2065 32.2997 82.4341 31.9026 82.8893C31.5152 83.3445 31.278 83.9837 31.1908 84.8069ZM41.9637 90.1095C41.1599 90.1095 40.4964 89.9691 39.9734 89.6882C39.4504 89.3977 39.0582 89.0248 38.7967 88.5696C38.5352 88.1047 38.3899 87.6156 38.3609 87.1023H39.9008C39.9298 87.3928 40.0219 87.6786 40.1768 87.9594C40.3318 88.2306 40.5594 88.4534 40.8596 88.6277C41.1599 88.802 41.5424 88.8892 42.0073 88.8892C42.5206 88.8892 42.9177 88.7827 43.1986 88.5696C43.4794 88.3468 43.6199 88.0563 43.6199 87.6979C43.6199 87.388 43.5085 87.1265 43.2857 86.9134C43.0727 86.6907 42.7385 86.497 42.2833 86.3323L41.2519 85.9691C40.787 85.7948 40.3657 85.6059 39.988 85.4026C39.6199 85.1895 39.3245 84.928 39.1018 84.6181C38.879 84.2985 38.7676 83.8965 38.7676 83.4123C38.7676 82.6665 39.034 82.0709 39.5667 81.6254C40.0993 81.1799 40.8306 80.9571 41.7603 80.9571C42.4286 80.9571 42.9807 81.0733 43.4165 81.3058C43.862 81.5382 44.201 81.8578 44.4334 82.2646C44.6659 82.6617 44.8014 83.112 44.8402 83.6157H43.3584C43.3196 83.2476 43.1744 82.9183 42.9225 82.6278C42.6707 82.3275 42.2591 82.1774 41.6877 82.1774C41.2325 82.1774 40.8838 82.2791 40.6417 82.4825C40.3996 82.6762 40.2785 82.9425 40.2785 83.2815C40.2785 83.6108 40.3947 83.882 40.6272 84.0951C40.8596 84.3081 41.2083 84.5018 41.6732 84.6762L42.7046 85.0248C43.1695 85.1992 43.586 85.3929 43.954 85.6059C44.322 85.8093 44.6077 86.066 44.8111 86.3759C45.0242 86.6858 45.1307 87.0829 45.1307 87.5672C45.1307 88.3129 44.8596 88.9231 44.3172 89.3977C43.7748 89.8722 42.9903 90.1095 41.9637 90.1095ZM48.0542 89.8916C47.8411 89.6301 47.6668 89.3153 47.5312 88.9473C47.4053 88.5793 47.3424 88.0272 47.3424 87.2912V82.3953H46.1511V81.175H47.3714V78.9959H48.8823V81.175H50.3641V82.3953H48.9113V87.0442C48.9113 87.8384 48.9937 88.434 49.1583 88.8311C49.3326 89.2185 49.5409 89.5429 49.783 89.8044V89.8916H48.0542ZM55.6031 89.8916V78.56H59.8307C60.7895 78.56 61.5595 78.6956 62.1406 78.9668C62.7217 79.238 63.143 79.6012 63.4045 80.0564C63.666 80.5116 63.7967 81.0201 63.7967 81.5818C63.7967 82.3179 63.5885 82.9377 63.172 83.4413C62.7653 83.945 62.1599 84.2936 61.3561 84.4873L64.1163 89.8044V89.8916H62.4021L59.7435 84.7052H57.2012V89.8916H55.6031ZM57.2012 83.4559H59.729C60.6006 83.4559 61.2205 83.3009 61.5885 82.991C61.9565 82.6714 62.1406 82.2259 62.1406 81.6544C62.1406 81.0733 61.9565 80.6327 61.5885 80.3324C61.2205 80.0225 60.6006 79.8675 59.729 79.8675H57.2012V83.4559ZM69.0355 90.1095C67.7087 90.1095 66.7208 89.6979 66.0719 88.8747C65.4327 88.0417 65.1131 86.928 65.1131 85.5333C65.1131 84.1387 65.4327 83.0297 66.0719 82.2065C66.7208 81.3736 67.7087 80.9571 69.0355 80.9571C70.3624 80.9571 71.3454 81.3736 71.9846 82.2065C72.6335 83.0297 72.958 84.1387 72.958 85.5333C72.958 86.928 72.6335 88.0417 71.9846 88.8747C71.3454 89.6979 70.3624 90.1095 69.0355 90.1095ZM69.0355 88.8311C69.8394 88.8311 70.4253 88.5357 70.7934 87.9449C71.1711 87.3541 71.3599 86.5502 71.3599 85.5333C71.3599 84.5164 71.1711 83.7125 70.7934 83.1217C70.4253 82.5309 69.8394 82.2355 69.0355 82.2355C68.2317 82.2355 67.6409 82.5309 67.2631 83.1217C66.8951 83.7125 66.7111 84.5164 66.7111 85.5333C66.7111 86.5502 66.8951 87.3541 67.2631 87.9449C67.6409 88.5357 68.2317 88.8311 69.0355 88.8311ZM78.1947 90.1095C76.8679 90.1095 75.88 89.6979 75.2311 88.8747C74.5919 88.0417 74.2723 86.928 74.2723 85.5333C74.2723 84.1387 74.5919 83.0297 75.2311 82.2065C75.88 81.3736 76.8679 80.9571 78.1947 80.9571C79.5216 80.9571 80.5046 81.3736 81.1438 82.2065C81.7927 83.0297 82.1172 84.1387 82.1172 85.5333C82.1172 86.928 81.7927 88.0417 81.1438 88.8747C80.5046 89.6979 79.5216 90.1095 78.1947 90.1095ZM78.1947 88.8311C78.9986 88.8311 79.5845 88.5357 79.9526 87.9449C80.3303 87.3541 80.5192 86.5502 80.5192 85.5333C80.5192 84.5164 80.3303 83.7125 79.9526 83.1217C79.5845 82.5309 78.9986 82.2355 78.1947 82.2355C77.3909 82.2355 76.8001 82.5309 76.4224 83.1217C76.0543 83.7125 75.8703 84.5164 75.8703 85.5333C75.8703 86.5502 76.0543 87.3541 76.4224 87.9449C76.8001 88.5357 77.3909 88.8311 78.1947 88.8311ZM84.0271 89.8916V81.175H85.4218V82.497H85.7704C85.906 82.0031 86.1627 81.6254 86.5404 81.3639C86.9278 81.0927 87.4169 80.9571 88.0077 80.9571C88.6372 80.9571 89.1505 81.0975 89.5476 81.3784C89.9447 81.6496 90.2353 82.0225 90.4193 82.497H90.768C90.9326 82.0031 91.2135 81.6254 91.6106 81.3639C92.0173 81.0927 92.5306 80.9571 93.1505 80.9571C94.1093 80.9571 94.8018 81.2719 95.2279 81.9014C95.6638 82.5212 95.8817 83.3203 95.8817 84.2985V89.8916H94.3127V84.6326C94.3127 83.8772 94.1916 83.3009 93.9495 82.9038C93.7074 82.497 93.32 82.2936 92.7873 82.2936C92.1384 82.2936 91.6348 82.5745 91.2764 83.1362C90.9181 83.6883 90.7389 84.3759 90.7389 85.1992V89.8916H89.1699V84.6326C89.1699 83.8772 89.0489 83.3009 88.8067 82.9038C88.5646 82.497 88.1772 82.2936 87.6445 82.2936C86.9956 82.2936 86.492 82.5745 86.1336 83.1362C85.7753 83.6883 85.5961 84.3759 85.5961 85.1992V89.8916H84.0271Z" fill="white"/>
</svg>
