<svg width="115" height="92" viewBox="0 0 115 92" fill="none" xmlns="http://www.w3.org/2000/svg">
<path d="M66.8708 29.4526H71.6069L66.9788 14.0484C66.7542 13.3018 66.2951 12.6474 65.6695 12.1822C65.0439 11.7169 64.2851 11.4656 63.5054 11.4654H51.5439C50.764 11.4652 50.0047 11.7164 49.3788 12.1816C48.7528 12.6469 48.2934 13.3015 48.0688 14.0484L43.4407 29.4526H66.8708ZM49.3819 25.3785L51.5313 18.1207C51.7546 17.3717 52.2139 16.7149 52.8408 16.2482C53.4676 15.7814 54.2285 15.5297 55.0101 15.5305H60.0375C60.8193 15.5296 61.5804 15.7813 62.2076 16.248C62.8347 16.7147 63.2944 17.3716 63.518 18.1207L65.6657 25.3713L49.3819 25.3785Z" fill="white"/>
<path d="M72.6878 50.3178H77.7656L76.2565 45.3011H71.1787L72.6878 50.3178Z" fill="white"/>
<path d="M69.4232 39.4571H74.501L72.9919 34.4404H67.9141L69.4232 39.4571Z" fill="white"/>
<path d="M44.3525 45.3011H39.273L37.7656 50.3178H42.8434L44.3525 45.3011Z" fill="white"/>
<path d="M47.6172 34.4404H42.5394L41.0303 39.4571H46.1081L47.6172 34.4404Z" fill="white"/>
<path d="M60.6633 45.3011H55.7996V50.3178H60.6633V45.3011Z" fill="white"/>
<path d="M60.6633 34.4404H55.7996V39.4571H60.6633V34.4404Z" fill="white"/>
<path d="M30.767 90.1095C30.031 90.1095 29.3821 90.0078 28.8203 89.8044C28.2683 89.601 27.7986 89.3202 27.4111 88.9618C27.0334 88.5938 26.738 88.1677 26.525 87.6834C26.3216 87.1991 26.2005 86.6762 26.1618 86.1144H27.7308C27.7598 86.5599 27.8906 86.9909 28.123 87.4074C28.3554 87.8141 28.6944 88.1483 29.1399 88.4098C29.5951 88.6713 30.1617 88.802 30.8397 88.802C31.5757 88.802 32.152 88.6422 32.5685 88.3226C32.9849 87.9933 33.1931 87.5478 33.1931 86.9861C33.1931 86.4243 32.9898 85.9934 32.583 85.6931C32.1859 85.3929 31.6823 85.1411 31.0721 84.9377L29.9825 84.5745C29.4305 84.3905 28.9027 84.1774 28.399 83.9353C27.8954 83.6835 27.4838 83.3542 27.1642 82.9474C26.8446 82.5406 26.6848 82.0079 26.6848 81.3494C26.6848 80.7101 26.8397 80.1678 27.1497 79.7223C27.4596 79.2767 27.8906 78.9378 28.4426 78.7053C28.9947 78.4632 29.6339 78.3421 30.3603 78.3421C31.2416 78.3421 31.968 78.5019 32.5394 78.8215C33.1108 79.1315 33.5418 79.5431 33.8324 80.0564C34.1229 80.5697 34.2876 81.1363 34.3263 81.7561H32.7573C32.7283 81.3978 32.6266 81.0588 32.4522 80.7392C32.2876 80.4196 32.0309 80.1581 31.6823 79.9547C31.3336 79.7513 30.8736 79.6496 30.3021 79.6496C29.6823 79.6496 29.1835 79.7901 28.8058 80.0709C28.4378 80.3421 28.2538 80.7198 28.2538 81.2041C28.2538 81.7464 28.4668 82.1629 28.893 82.4535C29.3288 82.744 29.8469 82.9861 30.4474 83.1798L31.5515 83.543C32.1036 83.7174 32.6217 83.9304 33.106 84.1822C33.5999 84.4341 33.997 84.7682 34.2972 85.1846C34.6072 85.5914 34.7621 86.1386 34.7621 86.8263C34.7621 87.8723 34.3989 88.681 33.6726 89.2524C32.9462 89.8238 31.9777 90.1095 30.767 90.1095ZM36.7043 89.8916V78.2695H38.2733V82.3082H38.6219C38.835 81.8723 39.1256 81.5382 39.4936 81.3058C39.8616 81.0733 40.3265 80.9571 40.8883 80.9571C41.8858 80.9571 42.6122 81.2719 43.0674 81.9014C43.5323 82.5212 43.7647 83.3203 43.7647 84.2985V89.8916H42.1957V84.6326C42.1957 83.8772 42.0602 83.3009 41.789 82.9038C41.5178 82.497 41.0965 82.2936 40.5251 82.2936C39.8181 82.2936 39.266 82.5745 38.8689 83.1362C38.4718 83.6883 38.2733 84.3759 38.2733 85.1992V89.8916H36.7043ZM49.4798 90.1095C48.1529 90.1095 47.165 89.6979 46.5161 88.8747C45.8769 88.0417 45.5573 86.928 45.5573 85.5333C45.5573 84.1387 45.8769 83.0297 46.5161 82.2065C47.165 81.3736 48.1529 80.9571 49.4798 80.9571C50.8066 80.9571 51.7897 81.3736 52.4289 82.2065C53.0778 83.0297 53.4022 84.1387 53.4022 85.5333C53.4022 86.928 53.0778 88.0417 52.4289 88.8747C51.7897 89.6979 50.8066 90.1095 49.4798 90.1095ZM49.4798 88.8311C50.2836 88.8311 50.8696 88.5357 51.2376 87.9449C51.6153 87.3541 51.8042 86.5502 51.8042 85.5333C51.8042 84.5164 51.6153 83.7125 51.2376 83.1217C50.8696 82.5309 50.2836 82.2355 49.4798 82.2355C48.6759 82.2355 48.0851 82.5309 47.7074 83.1217C47.3394 83.7125 47.1553 84.5164 47.1553 85.5333C47.1553 86.5502 47.3394 87.3541 47.7074 87.9449C48.0851 88.5357 48.6759 88.8311 49.4798 88.8311ZM56.2855 89.8916L54.6729 81.2622V81.175H56.1548L57.5349 88.5841H57.8254L59.3799 81.175H61.9077L63.4767 88.5841H63.7672L65.1328 81.175H66.5275V81.2622L64.9149 89.8916H62.3726L60.8036 82.4244H60.3968L58.8278 89.8916H56.2855ZM71.6993 90.1095C70.4209 90.1095 69.4475 89.6931 68.7793 88.8601C68.1207 88.0175 67.7914 86.9086 67.7914 85.5333C67.7914 84.6229 67.9367 83.8287 68.2272 83.1508C68.5275 82.4631 68.9633 81.9256 69.5347 81.5382C70.1158 81.1508 70.8325 80.9571 71.6848 80.9571C72.8761 80.9571 73.7816 81.3445 74.4015 82.1193C75.031 82.8941 75.3458 84.0176 75.3458 85.4897V85.9401H69.3168C69.3652 86.7924 69.5831 87.4945 69.9705 88.0466C70.3676 88.589 70.9487 88.8601 71.7139 88.8601C72.2659 88.8601 72.7114 88.7052 73.0504 88.3953C73.3894 88.0853 73.6315 87.6543 73.7768 87.1023H75.2586C75.1327 87.6931 74.9245 88.2161 74.6339 88.6713C74.3434 89.1168 73.956 89.4703 73.4717 89.7318C72.9874 89.9836 72.3967 90.1095 71.6993 90.1095ZM69.3313 84.8069H73.8204C73.7913 83.9643 73.5879 83.3203 73.2102 82.8748C72.8325 82.4292 72.3192 82.2065 71.6703 82.2065C70.9826 82.2065 70.4403 82.4341 70.0432 82.8893C69.6558 83.3445 69.4185 83.9837 69.3313 84.8069ZM77.2859 89.8916V81.175H78.6805V82.6568H79.0292C79.0873 82.4147 79.189 82.1726 79.3343 81.9305C79.4796 81.6883 79.712 81.4898 80.0316 81.3348C80.3512 81.1702 80.8016 81.0879 81.3827 81.0879H81.6732V82.5697H81.2374C80.3657 82.5697 79.7507 82.7973 79.3924 83.2525C79.034 83.698 78.8549 84.4002 78.8549 85.359V89.8916H77.2859ZM86.199 90.1095C85.3952 90.1095 84.7318 89.9691 84.2088 89.6882C83.6858 89.3977 83.2935 89.0248 83.032 88.5696C82.7705 88.1047 82.6252 87.6156 82.5962 87.1023H84.1361C84.1652 87.3928 84.2572 87.6786 84.4121 87.9594C84.5671 88.2306 84.7947 88.4534 85.0949 88.6277C85.3952 88.802 85.7777 88.8892 86.2426 88.8892C86.7559 88.8892 87.153 88.7827 87.4339 88.5696C87.7148 88.3468 87.8552 88.0563 87.8552 87.6979C87.8552 87.388 87.7438 87.1265 87.5211 86.9134C87.308 86.6907 86.9739 86.497 86.5187 86.3323L85.4872 85.9691C85.0223 85.7948 84.601 85.6059 84.2233 85.4026C83.8553 85.1895 83.5599 84.928 83.3371 84.6181C83.1143 84.2985 83.003 83.8965 83.003 83.4123C83.003 82.6665 83.2693 82.0709 83.802 81.6254C84.3347 81.1799 85.0659 80.9571 85.9957 80.9571C86.6639 80.9571 87.216 81.0733 87.6518 81.3058C88.0973 81.5382 88.4363 81.8578 88.6687 82.2646C88.9012 82.6617 89.0368 83.112 89.0755 83.6157H87.5937C87.555 83.2476 87.4097 82.9183 87.1579 82.6278C86.9061 82.3275 86.4944 82.1774 85.923 82.1774C85.4678 82.1774 85.1192 82.2791 84.877 82.4825C84.6349 82.6762 84.5138 82.9425 84.5138 83.2815C84.5138 83.6108 84.6301 83.882 84.8625 84.0951C85.0949 84.3081 85.4436 84.5018 85.9085 84.6762L86.94 85.0248C87.4048 85.1992 87.8213 85.3929 88.1893 85.6059C88.5574 85.8093 88.8431 86.066 89.0465 86.3759C89.2595 86.6858 89.3661 87.0829 89.3661 87.5672C89.3661 88.3129 89.0949 88.9231 88.5525 89.3977C88.0102 89.8722 87.2257 90.1095 86.199 90.1095Z" fill="white"/>
</svg>
