<svg width="205" height="92" viewBox="0 0 205 92" fill="none" xmlns="http://www.w3.org/2000/svg">
<path d="M115.942 28.7059C115.796 28.2185 115.496 27.7913 115.088 27.4875C114.679 27.1836 114.184 27.0194 113.675 27.0189H105.865C105.358 27.0212 104.865 27.1864 104.458 27.4901C104.051 27.7938 103.753 28.22 103.607 28.7059L98.6031 45.3345C98.4545 45.8177 98.155 46.2405 97.7485 46.541C97.342 46.8415 96.8499 47.0038 96.3444 47.0042H93.0625C92.5524 47.0043 92.056 46.8397 91.6471 46.5347C91.2382 46.2298 90.9388 45.8009 90.7935 45.3119L86.2207 29.8787L100.142 30.0698L100.928 27.0189H82.2368L88.5349 47.9701C88.6809 48.4561 88.9793 48.8822 89.3859 49.1857C89.7926 49.4891 90.2861 49.6538 90.7935 49.6554H98.6448C99.1636 49.6555 99.6685 49.4879 100.084 49.1776C100.5 48.8674 100.804 48.431 100.952 47.9337L105.865 31.3659C106.01 30.879 106.308 30.4517 106.715 30.1472C107.122 29.8428 107.616 29.6774 108.124 29.6754H111.404C111.916 29.6726 112.415 29.8358 112.826 30.1407C113.237 30.4455 113.538 30.8754 113.684 31.3659L118.265 46.8287H106.536L105.751 49.6554H122.237L115.942 28.7059Z" fill="white"/>
<path d="M109.59 23.2471C110.69 23.2471 111.765 22.921 112.679 22.3101C113.593 21.6992 114.306 20.8309 114.727 19.815C115.148 18.7991 115.258 17.6812 115.043 16.6028C114.829 15.5243 114.299 14.5337 113.522 13.7561C112.744 12.9786 111.754 12.4491 110.675 12.2346C109.597 12.0201 108.479 12.1302 107.463 12.551C106.447 12.9718 105.579 13.6843 104.968 14.5986C104.357 15.5129 104.031 16.5878 104.031 17.6874C104.031 19.1619 104.617 20.576 105.659 21.6187C106.702 22.6613 108.116 23.2471 109.59 23.2471ZM109.59 15.0917C110.104 15.0921 110.605 15.2446 111.032 15.53C111.459 15.8155 111.791 16.221 111.987 16.6953C112.183 17.1696 112.235 17.6915 112.134 18.1949C112.034 18.6983 111.787 19.1606 111.423 19.5234C111.06 19.8863 110.598 20.1333 110.094 20.2333C109.591 20.3333 109.069 20.2818 108.595 20.0853C108.121 19.8888 107.715 19.5561 107.43 19.1293C107.145 18.7025 106.993 18.2007 106.993 17.6874C106.995 16.9992 107.27 16.3399 107.756 15.8533C108.243 15.3667 108.902 15.0923 109.59 15.09V15.0917Z" fill="white"/>
<path d="M92.6021 23.2471C93.7017 23.2471 94.7766 22.921 95.6909 22.3101C96.6052 21.6992 97.3178 20.8309 97.7386 19.815C98.1594 18.7991 98.2695 17.6812 98.055 16.6028C97.8404 15.5243 97.3109 14.5337 96.5334 13.7561C95.7559 12.9786 94.7652 12.4491 93.6868 12.2346C92.6083 12.0201 91.4904 12.1302 90.4745 12.551C89.4587 12.9718 88.5904 13.6843 87.9795 14.5986C87.3685 15.5129 87.0425 16.5878 87.0425 17.6874C87.0425 19.1619 87.6282 20.576 88.6709 21.6187C89.7135 22.6613 91.1276 23.2471 92.6021 23.2471ZM92.6021 15.0917C93.1155 15.0917 93.6174 15.244 94.0442 15.5292C94.4711 15.8144 94.8038 16.2198 95.0002 16.6941C95.1967 17.1684 95.2481 17.6903 95.1479 18.1938C95.0478 18.6973 94.8006 19.1598 94.4376 19.5228C94.0745 19.8858 93.612 20.133 93.1085 20.2332C92.605 20.3334 92.0831 20.2819 91.6088 20.0855C91.1345 19.889 90.7291 19.5563 90.4439 19.1295C90.1587 18.7026 90.0065 18.2008 90.0065 17.6874C90.0088 16.9995 90.2829 16.3405 90.7691 15.8539C91.2554 15.3673 91.9143 15.0928 92.6021 15.09V15.0917Z" fill="white"/>
<path d="M63.2983 89.8916V78.56H67.1917C68.5186 78.56 69.492 78.8119 70.1118 79.3155C70.7413 79.8094 71.0561 80.4729 71.0561 81.3058C71.0561 81.8288 70.9157 82.2936 70.6348 82.7004C70.3636 83.1072 69.9423 83.3784 69.3709 83.514V83.8626C70.0973 83.9885 70.6445 84.2888 71.0125 84.7633C71.3902 85.2282 71.5791 85.8335 71.5791 86.5793C71.5791 87.5672 71.2401 88.3662 70.5622 88.9764C69.8842 89.5865 68.8382 89.8916 67.4242 89.8916H63.2983ZM64.8964 88.5841H67.4097C68.3007 88.5841 68.9447 88.4049 69.3418 88.0466C69.7486 87.6786 69.952 87.1604 69.952 86.4921C69.952 85.8432 69.7535 85.3396 69.3564 84.9813C68.9593 84.6229 68.3201 84.4437 67.4387 84.4437H64.8964V88.5841ZM64.8964 83.1798H67.2208C67.9762 83.1798 68.538 83.0442 68.906 82.7731C69.274 82.5019 69.4581 82.0854 69.4581 81.5237C69.4581 80.4196 68.7123 79.8675 67.2208 79.8675H64.8964V83.1798ZM76.324 90.1095C75.5782 90.1095 74.9438 89.9207 74.4208 89.5429C73.8978 89.1652 73.4959 88.6374 73.215 87.9594C72.9439 87.2718 72.8083 86.4631 72.8083 85.5333C72.8083 84.6035 72.9439 83.7997 73.215 83.1217C73.4959 82.4341 73.8978 81.9014 74.4208 81.5237C74.9535 81.146 75.5976 80.9571 76.353 80.9571C77.0116 80.9571 77.5346 81.0975 77.922 81.3784C78.3191 81.6496 78.5951 81.9595 78.7501 82.3082H79.0987V81.175H80.4934V89.8916H79.0987V88.7584H78.7501C78.5951 89.1071 78.3191 89.4219 77.922 89.7027C77.5249 89.9739 76.9922 90.1095 76.324 90.1095ZM76.6 88.802C77.3264 88.802 77.9026 88.5018 78.3288 87.9013C78.7549 87.3008 78.968 86.5115 78.968 85.5333C78.968 84.5551 78.7549 83.7658 78.3288 83.1653C77.9026 82.5648 77.3264 82.2646 76.6 82.2646C75.893 82.2646 75.3506 82.5503 74.9729 83.1217C74.5952 83.6931 74.4063 84.497 74.4063 85.5333C74.4063 86.5696 74.5952 87.3735 74.9729 87.9449C75.3506 88.5163 75.893 88.802 76.6 88.802ZM84.0783 89.8916C83.8652 89.6301 83.6909 89.3153 83.5553 88.9473C83.4294 88.5793 83.3665 88.0272 83.3665 87.2912V82.3953H82.1752V81.175H83.3955V78.9959H84.9064V81.175H86.3882V82.3953H84.9354V87.0442C84.9354 87.8384 85.0178 88.434 85.1824 88.8311C85.3567 89.2185 85.565 89.5429 85.8071 89.8044V89.8916H84.0783ZM88.0791 89.8916V78.2695H89.6481V82.3082H89.9967C90.2098 81.8723 90.5004 81.5382 90.8684 81.3058C91.2364 81.0733 91.7013 80.9571 92.263 80.9571C93.2606 80.9571 93.987 81.2719 94.4422 81.9014C94.9071 82.5212 95.1395 83.3203 95.1395 84.2985V89.8916H93.5705V84.6326C93.5705 83.8772 93.4349 83.3009 93.1638 82.9038C92.8926 82.497 92.4713 82.2936 91.8999 82.2936C91.1928 82.2936 90.6408 82.5745 90.2437 83.1362C89.8466 83.6883 89.6481 84.3759 89.6481 85.1992V89.8916H88.0791ZM97.5568 89.8916V81.175H98.9514V82.6568H99.3001C99.3582 82.4147 99.4599 82.1726 99.6052 81.9305C99.7505 81.6883 99.9829 81.4898 100.303 81.3348C100.622 81.1702 101.072 81.0879 101.654 81.0879H101.944V82.5697H101.508C100.637 82.5697 100.022 82.7973 99.6633 83.2525C99.3049 83.698 99.1258 84.4002 99.1258 85.359V89.8916H97.5568ZM106.66 90.1095C105.333 90.1095 104.345 89.6979 103.696 88.8747C103.057 88.0417 102.737 86.928 102.737 85.5333C102.737 84.1387 103.057 83.0297 103.696 82.2065C104.345 81.3736 105.333 80.9571 106.66 80.9571C107.987 80.9571 108.97 81.3736 109.609 82.2065C110.258 83.0297 110.582 84.1387 110.582 85.5333C110.582 86.928 110.258 88.0417 109.609 88.8747C108.97 89.6979 107.987 90.1095 106.66 90.1095ZM106.66 88.8311C107.464 88.8311 108.05 88.5357 108.418 87.9449C108.795 87.3541 108.984 86.5502 108.984 85.5333C108.984 84.5164 108.795 83.7125 108.418 83.1217C108.05 82.5309 107.464 82.2355 106.66 82.2355C105.856 82.2355 105.265 82.5309 104.888 83.1217C104.52 83.7125 104.336 84.5164 104.336 85.5333C104.336 86.5502 104.52 87.3541 104.888 87.9449C105.265 88.5357 105.856 88.8311 106.66 88.8311ZM115.819 90.1095C114.492 90.1095 113.504 89.6979 112.856 88.8747C112.216 88.0417 111.897 86.928 111.897 85.5333C111.897 84.1387 112.216 83.0297 112.856 82.2065C113.504 81.3736 114.492 80.9571 115.819 80.9571C117.146 80.9571 118.129 81.3736 118.768 82.2065C119.417 83.0297 119.742 84.1387 119.742 85.5333C119.742 86.928 119.417 88.0417 118.768 88.8747C118.129 89.6979 117.146 90.1095 115.819 90.1095ZM115.819 88.8311C116.623 88.8311 117.209 88.5357 117.577 87.9449C117.955 87.3541 118.144 86.5502 118.144 85.5333C118.144 84.5164 117.955 83.7125 117.577 83.1217C117.209 82.5309 116.623 82.2355 115.819 82.2355C115.015 82.2355 114.425 82.5309 114.047 83.1217C113.679 83.7125 113.495 84.5164 113.495 85.5333C113.495 86.5502 113.679 87.3541 114.047 87.9449C114.425 88.5357 115.015 88.8311 115.819 88.8311ZM121.652 89.8916V81.175H123.046V82.497H123.395C123.53 82.0031 123.787 81.6254 124.165 81.3639C124.552 81.0927 125.041 80.9571 125.632 80.9571C126.262 80.9571 126.775 81.0975 127.172 81.3784C127.569 81.6496 127.86 82.0225 128.044 82.497H128.392C128.557 82.0031 128.838 81.6254 129.235 81.3639C129.642 81.0927 130.155 80.9571 130.775 80.9571C131.734 80.9571 132.426 81.2719 132.852 81.9014C133.288 82.5212 133.506 83.3203 133.506 84.2985V89.8916H131.937V84.6326C131.937 83.8772 131.816 83.3009 131.574 82.9038C131.332 82.497 130.944 82.2936 130.412 82.2936C129.763 82.2936 129.259 82.5745 128.901 83.1362C128.542 83.6883 128.363 84.3759 128.363 85.1992V89.8916H126.794V84.6326C126.794 83.8772 126.673 83.3009 126.431 82.9038C126.189 82.497 125.802 82.2936 125.269 82.2936C124.62 82.2936 124.116 82.5745 123.758 83.1362C123.4 83.6883 123.221 84.3759 123.221 85.1992V89.8916H121.652ZM138.731 90.1095C137.928 90.1095 137.264 89.9691 136.741 89.6882C136.218 89.3977 135.826 89.0248 135.564 88.5696C135.303 88.1047 135.158 87.6156 135.129 87.1023H136.669C136.698 87.3928 136.79 87.6786 136.945 87.9594C137.1 88.2306 137.327 88.4534 137.627 88.6277C137.928 88.802 138.31 88.8892 138.775 88.8892C139.288 88.8892 139.685 88.7827 139.966 88.5696C140.247 88.3468 140.388 88.0563 140.388 87.6979C140.388 87.388 140.276 87.1265 140.054 86.9134C139.84 86.6907 139.506 86.497 139.051 86.3323L138.02 85.9691C137.555 85.7948 137.133 85.6059 136.756 85.4026C136.388 85.1895 136.092 84.928 135.87 84.6181C135.647 84.2985 135.535 83.8965 135.535 83.4123C135.535 82.6665 135.802 82.0709 136.334 81.6254C136.867 81.1799 137.598 80.9571 138.528 80.9571C139.196 80.9571 139.748 81.0733 140.184 81.3058C140.63 81.5382 140.969 81.8578 141.201 82.2646C141.434 82.6617 141.569 83.112 141.608 83.6157H140.126C140.087 83.2476 139.942 82.9183 139.69 82.6278C139.439 82.3275 139.027 82.1774 138.455 82.1774C138 82.1774 137.652 82.2791 137.409 82.4825C137.167 82.6762 137.046 82.9425 137.046 83.2815C137.046 83.6108 137.163 83.882 137.395 84.0951C137.627 84.3081 137.976 84.5018 138.441 84.6762L139.472 85.0248C139.937 85.1992 140.354 85.3929 140.722 85.6059C141.09 85.8093 141.376 86.066 141.579 86.3759C141.792 86.6858 141.899 87.0829 141.899 87.5672C141.899 88.3129 141.627 88.9231 141.085 89.3977C140.543 89.8722 139.758 90.1095 138.731 90.1095Z" fill="white"/>
</svg>
