<svg width="205" height="92" viewBox="0 0 205 92" fill="none" xmlns="http://www.w3.org/2000/svg">
<path d="M117.784 12.0671H110.146V12.0817H82.7456L90.9029 39.2057C91.0926 39.8353 91.4796 40.3871 92.0069 40.7799C92.5341 41.1727 93.1737 41.3857 93.8312 41.3873H103.936C104.593 41.3857 105.233 41.1727 105.76 40.7799C106.287 40.3871 106.674 39.8353 106.864 39.2057L110.698 26.4783H118.385L119.175 23.8617L121.309 16.815L122.746 12.0671H117.784ZM103.948 35.7609C103.76 36.3944 103.373 36.9503 102.843 37.3457C102.314 37.7411 101.67 37.9548 101.01 37.955H96.7594C96.1003 37.9525 95.4596 37.7378 94.9321 37.3426C94.4047 36.9474 94.0186 36.3927 93.8312 35.7609L87.8931 15.7483H109.878L103.948 35.7609ZM115.651 22.7929H111.804L113.923 15.7483H117.784L115.651 22.7929Z" fill="white"/>
<path d="M113.296 46.1875H84.4734V49.716H113.296V46.1875Z" fill="white"/>
<path d="M84.5666 90.1095C83.0073 90.1095 81.7869 89.5962 80.9056 88.5696C80.0339 87.5333 79.5981 86.0854 79.5981 84.2258C79.5981 82.3566 80.0388 80.9087 80.9201 79.8821C81.8015 78.8554 83.0169 78.3421 84.5666 78.3421C85.4673 78.3421 86.2469 78.5165 86.9055 78.8651C87.5738 79.2041 88.1016 79.6835 88.489 80.3034C88.8861 80.9232 89.1234 81.6496 89.2009 82.4825H87.5593C87.4624 81.6205 87.1476 80.9329 86.615 80.4196C86.092 79.9063 85.3995 79.6496 84.5375 79.6496C83.4818 79.6496 82.6683 80.0515 82.0969 80.8554C81.5351 81.6496 81.2543 82.7731 81.2543 84.2258C81.2543 85.6883 81.54 86.8166 82.1114 87.6108C82.6925 88.4049 83.4964 88.802 84.523 88.802C85.4334 88.802 86.1452 88.5308 86.6585 87.9885C87.1815 87.4461 87.4818 86.773 87.5593 85.9691H89.2009C89.1234 86.7924 88.8861 87.5188 88.489 88.1483C88.1016 88.7681 87.5786 89.2524 86.92 89.601C86.2614 89.94 85.477 90.1095 84.5666 90.1095ZM94.3067 90.1095C92.9798 90.1095 91.9919 89.6979 91.343 88.8747C90.7038 88.0417 90.3842 86.928 90.3842 85.5333C90.3842 84.1387 90.7038 83.0297 91.343 82.2065C91.9919 81.3736 92.9798 80.9571 94.3067 80.9571C95.6335 80.9571 96.6166 81.3736 97.2558 82.2065C97.9047 83.0297 98.2291 84.1387 98.2291 85.5333C98.2291 86.928 97.9047 88.0417 97.2558 88.8747C96.6166 89.6979 95.6335 90.1095 94.3067 90.1095ZM94.3067 88.8311C95.1105 88.8311 95.6965 88.5357 96.0645 87.9449C96.4422 87.3541 96.6311 86.5502 96.6311 85.5333C96.6311 84.5164 96.4422 83.7125 96.0645 83.1217C95.6965 82.5309 95.1105 82.2355 94.3067 82.2355C93.5028 82.2355 92.912 82.5309 92.5343 83.1217C92.1663 83.7125 91.9822 84.5164 91.9822 85.5333C91.9822 86.5502 92.1663 87.3541 92.5343 87.9449C92.912 88.5357 93.5028 88.8311 94.3067 88.8311ZM100.315 89.8916V82.3953H99.0361V81.175H100.315V80.6084C100.315 80.1726 100.387 79.7755 100.532 79.4172C100.678 79.0588 100.925 78.7731 101.273 78.56C101.622 78.347 102.097 78.2404 102.697 78.2404C102.91 78.2404 103.094 78.255 103.249 78.284V79.5334C103.152 79.5043 103.007 79.4898 102.813 79.4898C102.387 79.4898 102.116 79.5963 102 79.8094C101.884 80.0128 101.825 80.284 101.825 80.623V81.175H103.249V82.3953H101.825V89.8916H100.315ZM105.399 89.8916V82.3953H104.121V81.175H105.399V80.6084C105.399 80.1726 105.472 79.7755 105.617 79.4172C105.762 79.0588 106.009 78.7731 106.358 78.56C106.707 78.347 107.181 78.2404 107.782 78.2404C107.995 78.2404 108.179 78.255 108.334 78.284V79.5334C108.237 79.5043 108.092 79.4898 107.898 79.4898C107.472 79.4898 107.201 79.5963 107.084 79.8094C106.968 80.0128 106.91 80.284 106.91 80.623V81.175H108.334V82.3953H106.91V89.8916H105.399ZM113.326 90.1095C112.047 90.1095 111.074 89.6931 110.406 88.8601C109.747 88.0175 109.418 86.9086 109.418 85.5333C109.418 84.6229 109.563 83.8287 109.854 83.1508C110.154 82.4631 110.59 81.9256 111.161 81.5382C111.742 81.1508 112.459 80.9571 113.311 80.9571C114.502 80.9571 115.408 81.3445 116.028 82.1193C116.657 82.8941 116.972 84.0176 116.972 85.4897V85.9401H110.943C110.992 86.7924 111.209 87.4945 111.597 88.0466C111.994 88.589 112.575 88.8601 113.34 88.8601C113.892 88.8601 114.338 88.7052 114.677 88.3953C115.016 88.0853 115.258 87.6543 115.403 87.1023H116.885C116.759 87.6931 116.551 88.2161 116.26 88.6713C115.97 89.1168 115.582 89.4703 115.098 89.7318C114.614 89.9836 114.023 90.1095 113.326 90.1095ZM110.958 84.8069H115.447C115.418 83.9643 115.214 83.3203 114.836 82.8748C114.459 82.4292 113.945 82.2065 113.297 82.2065C112.609 82.2065 112.067 82.4341 111.669 82.8893C111.282 83.3445 111.045 83.9837 110.958 84.8069ZM122.195 90.1095C120.917 90.1095 119.944 89.6931 119.275 88.8601C118.617 88.0175 118.287 86.9086 118.287 85.5333C118.287 84.6229 118.433 83.8287 118.723 83.1508C119.024 82.4631 119.459 81.9256 120.031 81.5382C120.612 81.1508 121.329 80.9571 122.181 80.9571C123.372 80.9571 124.278 81.3445 124.898 82.1193C125.527 82.8941 125.842 84.0176 125.842 85.4897V85.9401H119.813C119.861 86.7924 120.079 87.4945 120.467 88.0466C120.864 88.589 121.445 88.8601 122.21 88.8601C122.762 88.8601 123.207 88.7052 123.546 88.3953C123.885 88.0853 124.128 87.6543 124.273 87.1023H125.755C125.629 87.6931 125.421 88.2161 125.13 88.6713C124.839 89.1168 124.452 89.4703 123.968 89.7318C123.484 89.9836 122.893 90.1095 122.195 90.1095ZM119.827 84.8069H124.316C124.287 83.9643 124.084 83.3203 123.706 82.8748C123.329 82.4292 122.815 82.2065 122.166 82.2065C121.479 82.2065 120.936 82.4341 120.539 82.8893C120.152 83.3445 119.915 83.9837 119.827 84.8069Z" fill="white"/>
</svg>
