<svg width="205" height="92" viewBox="0 0 205 92" fill="none" xmlns="http://www.w3.org/2000/svg">
<path d="M102.184 19.7675C101.006 19.7675 99.8546 20.1169 98.8752 20.7713C97.8957 21.4258 97.1324 22.3561 96.6817 23.4444C96.231 24.5328 96.1131 25.7303 96.3431 26.8856C96.573 28.0409 97.1404 29.1021 97.9735 29.9349C98.8066 30.7678 99.868 31.3348 101.023 31.5644C102.179 31.794 103.376 31.6758 104.464 31.2248C105.553 30.7737 106.483 30.0101 107.137 29.0305C107.791 28.0508 108.14 26.8992 108.14 25.7212C108.14 24.9392 107.986 24.1649 107.686 23.4424C107.387 22.72 106.948 22.0635 106.395 21.5107C105.842 20.9578 105.186 20.5193 104.463 20.2202C103.74 19.9211 102.966 19.7673 102.184 19.7675ZM102.184 28.5027C101.635 28.5027 101.098 28.3398 100.641 28.0346C100.184 27.7293 99.828 27.2955 99.6177 26.7879C99.4075 26.2804 99.3525 25.7218 99.4597 25.183C99.5669 24.6442 99.8314 24.1492 100.22 23.7607C100.608 23.3723 101.103 23.1077 101.642 23.0005C102.181 22.8933 102.74 22.9483 103.247 23.1586C103.755 23.3688 104.188 23.7249 104.494 24.1817C104.799 24.6385 104.962 25.1755 104.962 25.7249C104.962 26.4616 104.669 27.1682 104.148 27.6891C103.627 28.21 102.921 28.5027 102.184 28.5027Z" fill="white"/>
<path d="M113.071 10.8916H91.4359C89.0015 10.8941 86.6676 11.8622 84.9463 13.5835C83.225 15.3048 82.2568 17.6388 82.2544 20.0731V41.7101C82.2568 44.1444 83.225 46.4784 84.9463 48.1997C86.6676 49.921 89.0015 50.8891 91.4359 50.8916H113.071C115.506 50.8891 117.84 49.9211 119.561 48.1998C121.283 46.4785 122.251 44.1446 122.254 41.7101V20.0731C122.251 17.6386 121.283 15.3047 119.561 13.5834C117.84 11.8621 115.506 10.8941 113.071 10.8916ZM96.034 47.2675L98.0711 40.3768C98.2267 39.8527 98.5475 39.3929 98.9856 39.0659C99.4238 38.7388 99.9558 38.5621 100.503 38.562H104.021C104.568 38.5621 105.1 38.7388 105.538 39.0659C105.976 39.3929 106.297 39.8527 106.453 40.3768L108.49 47.2675H96.034ZM118.64 41.712C118.637 43.1845 118.05 44.5959 117.009 45.6371C115.968 46.6783 114.557 47.2646 113.084 47.2675H111.791L108.864 37.5268C108.707 37.0046 108.386 36.5468 107.948 36.2216C107.51 35.8963 106.979 35.7209 106.434 35.7212H98.0748C97.5295 35.7209 96.9986 35.8963 96.5609 36.2216C96.1232 36.5468 95.8021 37.0046 95.6451 37.5268L92.7174 47.2675H91.4359C89.9632 47.2651 88.5515 46.679 87.5102 45.6376C86.4689 44.5963 85.8828 43.1846 85.8803 41.712V20.0731C85.8828 18.6004 86.4689 17.1888 87.5102 16.1474C88.5515 15.1061 89.9632 14.52 91.4359 14.5175H113.071C114.544 14.5205 115.955 15.1067 116.996 16.148C118.037 17.1892 118.624 18.6006 118.627 20.0731L118.64 41.712Z" fill="white"/>
<path d="M89.5916 89.8916V78.56H91.2187V89.8916H89.5916ZM93.8337 89.8916V81.175H95.2284V82.4825H95.577C95.7417 81.9983 96.0274 81.6254 96.4341 81.3639C96.8409 81.0927 97.3591 80.9571 97.9886 80.9571C99.0055 80.9571 99.7416 81.2719 100.197 81.9014C100.662 82.5212 100.894 83.3203 100.894 84.2985V89.8916H99.3251V84.6326C99.3251 83.8772 99.1896 83.3009 98.9184 82.9038C98.6472 82.497 98.2259 82.2936 97.6545 82.2936C96.9475 82.2936 96.3954 82.5745 95.9983 83.1362C95.6012 83.6883 95.4027 84.3759 95.4027 85.1992V89.8916H93.8337ZM103.747 89.8916V82.3953H102.469V81.175H103.747V80.6084C103.747 80.1726 103.82 79.7755 103.965 79.4172C104.11 79.0588 104.357 78.7731 104.706 78.56C105.055 78.347 105.529 78.2404 106.13 78.2404C106.343 78.2404 106.527 78.255 106.682 78.284V79.5334C106.585 79.5043 106.44 79.4898 106.246 79.4898C105.82 79.4898 105.549 79.5963 105.432 79.8094C105.316 80.0128 105.258 80.284 105.258 80.623V81.175H106.682V82.3953H105.258V89.8916H103.747ZM111.7 90.1095C110.373 90.1095 109.385 89.6979 108.736 88.8747C108.097 88.0417 107.777 86.928 107.777 85.5333C107.777 84.1387 108.097 83.0297 108.736 82.2065C109.385 81.3736 110.373 80.9571 111.7 80.9571C113.026 80.9571 114.009 81.3736 114.649 82.2065C115.298 83.0297 115.622 84.1387 115.622 85.5333C115.622 86.928 115.298 88.0417 114.649 88.8747C114.009 89.6979 113.026 90.1095 111.7 90.1095ZM111.7 88.8311C112.503 88.8311 113.089 88.5357 113.457 87.9449C113.835 87.3541 114.024 86.5502 114.024 85.5333C114.024 84.5164 113.835 83.7125 113.457 83.1217C113.089 82.5309 112.503 82.2355 111.7 82.2355C110.896 82.2355 110.305 82.5309 109.927 83.1217C109.559 83.7125 109.375 84.5164 109.375 85.5333C109.375 86.5502 109.559 87.3541 109.927 87.9449C110.305 88.5357 110.896 88.8311 111.7 88.8311Z" fill="white"/>
</svg>
