<svg width="48" height="55" viewBox="0 0 48 55" fill="none" xmlns="http://www.w3.org/2000/svg">
<g clip-path="url(#clip0_2256_232)">
<path d="M19.4194 22.0153L0 16.2087V19.1287L16.9522 24.1343C17.4045 24.2649 17.8027 24.5383 18.088 24.914C18.3733 25.2897 18.5304 25.7477 18.5361 26.22V29.2711C18.5368 29.7453 18.3851 30.2071 18.1037 30.588C17.8222 30.9688 17.4259 31.2485 16.9736 31.3853L0.0546156 36.4696V39.3848L19.4432 33.4782C19.894 33.3405 20.2886 33.0608 20.5687 32.6804C20.8489 32.3 20.9995 31.8393 20.9985 31.3663L20.9795 24.1105C20.9774 23.6377 20.8239 23.1781 20.5417 22.7996C20.2595 22.421 19.8636 22.1436 19.4123 22.0081" fill="#52575B"/>
<path d="M23.169 19.8032L27.7828 0L30.2999 1.45402L26.2108 18.7068C26.1022 19.1683 26.1446 19.6528 26.332 20.0882C26.5194 20.5236 26.8416 20.8868 27.2509 21.1238L29.8867 22.6445C30.297 22.8836 30.7736 22.9824 31.2446 22.9261C31.7157 22.8698 32.1558 22.6614 32.4987 22.3323L45.2835 10.0971L47.803 11.5511L33.0805 25.5192C32.7382 25.8443 32.3007 26.05 31.8327 26.1059C31.3648 26.1617 30.8914 26.0646 30.4827 25.8291L24.2209 22.2131C23.8126 21.9768 23.4908 21.615 23.3031 21.181C23.1154 20.7471 23.0717 20.264 23.1785 19.8032" fill="#52575B"/>
<path d="M33.2158 29.4571L48 43.3632L45.4877 44.8268L32.6435 32.6559C32.2993 32.3287 31.8587 32.1223 31.3878 32.0677C30.9168 32.0131 30.4409 32.1133 30.0315 32.3532L27.4052 33.8835C26.9962 34.1216 26.6748 34.486 26.4891 34.9225C26.3033 35.359 26.2632 35.844 26.3746 36.3053L30.5373 53.5413L28.0202 55.0001L23.3233 35.2159C23.2141 34.7555 23.2556 34.272 23.4417 33.8371C23.6277 33.4021 23.9484 33.039 24.3562 32.8013L30.6061 29.1591C31.0142 28.9226 31.4871 28.8239 31.9552 28.8775C32.4233 28.9312 32.8619 29.1343 33.2063 29.4571" fill="#52575B"/>
</g>
<defs>
<clipPath id="clip0_2256_232">
<rect width="48" height="55" fill="white"/>
</clipPath>
</defs>
</svg>
