<svg width="406" height="128" viewBox="0 0 406 128" fill="none" xmlns="http://www.w3.org/2000/svg">
<path d="M225.876 10.327V56.136C225.876 58.6442 226.89 61.0498 228.693 62.8242C230.497 64.5985 232.944 65.5964 235.497 65.5985H285.405V58.0157H240.282C238.707 58.0157 237.195 57.4005 236.081 56.3055C234.967 55.2104 234.341 53.7252 234.341 52.1766V36.9789H277.689V29.4361H234.341V14.2864C234.341 12.7378 234.967 11.2526 236.081 10.1576C237.195 9.06252 238.707 8.44733 240.282 8.44733H285.405V0.864502H235.497C232.944 0.866622 230.497 1.8645 228.693 3.63884C226.89 5.41318 225.876 7.81881 225.876 10.327Z" fill="white"/>
<path d="M157.369 38.2587C157.369 37.6859 157.6 37.1366 158.012 36.7316C158.424 36.3266 158.983 36.0991 159.566 36.0991H174.485C186.694 36.0991 194.434 30.4999 194.434 18.2538C194.434 7.26351 186.718 0.864502 174.485 0.864502H134.237C132.989 0.864502 131.753 1.10615 130.599 1.57566C129.446 2.04517 128.398 2.73334 127.515 3.60087C126.633 4.46841 125.932 5.49833 125.455 6.63182C124.977 7.76531 124.731 8.98018 124.731 10.2071V65.5985H132.26V12.0628C132.26 11.0692 132.661 10.1162 133.375 9.41294C134.089 8.70964 135.058 8.31347 136.069 8.31135H158.134V8.26336H174.013C181.078 8.26336 185.872 10.759 185.872 18.3418C185.872 26.1086 181.078 28.5162 174.013 28.5162H156.058C154.171 28.5205 152.363 29.2595 151.03 30.5713C149.697 31.8832 148.947 33.661 148.945 35.5151V40.0584C148.943 41.1696 149.211 42.265 149.726 43.2541C150.241 44.2431 150.989 45.0972 151.907 45.7456L180.028 65.6305H194.483L158.28 40.0584C157.998 39.8561 157.769 39.5914 157.61 39.2856C157.452 38.9799 157.369 38.6418 157.369 38.2987" fill="white"/>
<path d="M38.6771 5.74457L20.3479 65.6553H29.4799L45.2453 13.3514C45.6693 11.952 46.5414 10.7244 47.7321 9.85111C48.9228 8.97781 50.3685 8.50541 51.8542 8.50415H61.3932C62.8789 8.50541 64.3245 8.97781 65.5152 9.85111C66.7059 10.7244 67.5781 11.952 68.0021 13.3514L83.7674 65.6553H92.8995L74.5703 5.74457C74.1407 4.3554 73.2679 3.13885 72.0807 2.27463C70.8935 1.41041 69.455 0.94436 67.9777 0.945314H45.2697C43.7923 0.94436 42.3538 1.41041 41.1666 2.27463C39.9795 3.13885 39.1066 4.3554 38.6771 5.74457Z" fill="white"/>
<path d="M331.429 5.74384L313.1 65.6546H322.232L337.998 13.3507C338.422 11.9513 339.294 10.7237 340.485 9.85038C341.675 8.97708 343.121 8.50468 344.607 8.50341H354.146C355.631 8.50468 357.077 8.97708 358.268 9.85038C359.458 10.7237 360.331 11.9513 360.755 13.3507L376.528 65.6546H385.652L367.323 5.74384C366.893 4.35467 366.02 3.13812 364.833 2.2739C363.646 1.40968 362.207 0.943628 360.73 0.944582H338.022C336.545 0.943628 335.106 1.40968 333.919 2.2739C332.732 3.13812 331.859 4.35467 331.429 5.74384Z" fill="white"/>
<path d="M4.50561 121.402L0.816951 102.241V102.092H3.54012L6.75842 119.322H7.35256L11.0907 102.092H15.7944L19.5821 119.322H20.1762L23.345 102.092H25.9196V102.241L22.2805 121.402H17.4531L13.6654 104.196H13.0712L9.30829 121.402H4.50561ZM35.9327 121.748C33.9687 121.748 32.3348 121.344 31.031 120.535C29.7437 119.71 28.7782 118.547 28.1345 117.045C27.5074 115.543 27.1938 113.777 27.1938 111.747C27.1938 109.7 27.5074 107.935 28.1345 106.449C28.7782 104.947 29.7437 103.792 31.031 102.983C32.3348 102.158 33.9687 101.746 35.9327 101.746C37.9132 101.746 39.5471 102.158 40.8344 102.983C42.1217 103.792 43.079 104.947 43.7061 106.449C44.3498 107.935 44.6716 109.7 44.6716 111.747C44.6716 113.777 44.3498 115.543 43.7061 117.045C43.079 118.547 42.1217 119.71 40.8344 120.535C39.5471 121.344 37.9132 121.748 35.9327 121.748ZM35.9327 119.52C37.9462 119.52 39.4316 118.844 40.3888 117.49C41.3625 116.121 41.8494 114.206 41.8494 111.747C41.8494 109.288 41.3625 107.382 40.3888 106.028C39.4316 104.658 37.9462 103.974 35.9327 103.974C33.9192 103.974 32.4256 104.658 31.4519 106.028C30.4946 107.382 30.016 109.288 30.016 111.747C30.016 114.206 30.4946 116.121 31.4519 117.49C32.4256 118.844 33.9192 119.52 35.9327 119.52ZM47.3414 121.402V102.092H54.5454C56.1793 102.092 57.4914 102.323 58.4816 102.785C59.4719 103.247 60.1898 103.866 60.6354 104.642C61.081 105.418 61.3038 106.284 61.3038 107.241C61.3038 108.496 60.949 109.552 60.2393 110.41C59.5462 111.268 58.5147 111.863 57.1448 112.193L61.8485 121.253V121.402H58.9273L54.3969 112.564H50.0646V121.402H47.3414ZM50.0646 110.435H54.3721C55.8575 110.435 56.9138 110.171 57.5409 109.643C58.1681 109.098 58.4816 108.339 58.4816 107.365C58.4816 106.375 58.1681 105.624 57.5409 105.112C56.9138 104.584 55.8575 104.32 54.3721 104.32H50.0646V110.435ZM64.0669 121.402V102.092H66.79V110.262H68.2754L74.7615 102.092H77.856V102.241L70.4539 111.326L78.4749 121.253V121.402H75.1081L68.2754 112.737H66.79V121.402H64.0669ZM76.8584 114.841V112.613H82.7999V114.841H76.8584ZM85.9133 121.402V102.092H88.686V119.075H97.7963V121.402H85.9133ZM100.272 121.402V102.092H103.045V121.402H100.272ZM107.006 121.402V102.092H119.532V104.419H109.778V109.989H117.502V112.217H109.778V121.402H107.006ZM121.758 121.402V102.092H134.136V104.419H124.531V109.89H132.106V112.118H124.531V119.075H134.285V121.402H121.758ZM142.618 121.402V102.092H149.253C151.514 102.092 153.173 102.521 154.229 103.379C155.302 104.221 155.838 105.352 155.838 106.771C155.838 107.662 155.599 108.454 155.12 109.148C154.658 109.841 153.94 110.303 152.966 110.534V111.128C154.204 111.343 155.137 111.854 155.764 112.663C156.407 113.455 156.729 114.487 156.729 115.757C156.729 117.441 156.152 118.802 154.996 119.842C153.841 120.882 152.059 121.402 149.649 121.402H142.618ZM145.342 119.174H149.624C151.143 119.174 152.24 118.868 152.917 118.258C153.61 117.631 153.957 116.748 153.957 115.609C153.957 114.503 153.618 113.645 152.942 113.034C152.265 112.424 151.176 112.118 149.674 112.118H145.342V119.174ZM145.342 109.965H149.302C150.59 109.965 151.547 109.733 152.174 109.271C152.801 108.809 153.115 108.1 153.115 107.142C153.115 105.261 151.844 104.32 149.302 104.32H145.342V109.965ZM157.512 121.402V121.253L163.8 102.092H168.256L174.544 121.253V121.402H171.648L166.226 104.246H165.632L160.21 121.402H157.512ZM161.597 115.782L162.364 113.455H169.494L170.261 115.782H161.597ZM176.562 121.402V102.092H179.335V119.075H188.445V121.402H176.562ZM188.99 121.402V121.253L195.278 102.092H199.734L206.022 121.253V121.402H203.126L197.704 104.246H197.11L191.688 121.402H188.99ZM193.075 115.782L193.842 113.455H200.972L201.739 115.782H193.075ZM208.041 121.402V102.092H213.091L220.765 119.199H221.359V102.092H223.884V121.402H218.834L211.16 104.295H210.566V121.402H208.041ZM235.032 121.773C232.375 121.773 230.296 120.898 228.794 119.149C227.309 117.383 226.566 114.916 226.566 111.747C226.566 108.562 227.317 106.094 228.819 104.345C230.321 102.595 232.392 101.721 235.032 101.721C236.567 101.721 237.896 102.018 239.018 102.612C240.157 103.19 241.056 104.007 241.717 105.063C242.393 106.119 242.798 107.357 242.93 108.776H240.132C239.967 107.307 239.431 106.136 238.523 105.261C237.632 104.386 236.452 103.949 234.983 103.949C233.184 103.949 231.798 104.634 230.824 106.004C229.867 107.357 229.388 109.271 229.388 111.747C229.388 114.239 229.875 116.162 230.849 117.515C231.839 118.868 233.209 119.545 234.958 119.545C236.51 119.545 237.723 119.083 238.597 118.159C239.489 117.235 240 116.088 240.132 114.718H242.93C242.798 116.121 242.393 117.358 241.717 118.431C241.056 119.487 240.165 120.313 239.043 120.907C237.921 121.484 236.584 121.773 235.032 121.773ZM244.973 121.402V102.092H257.351V104.419H247.746V109.89H255.321V112.118H247.746V119.075H257.499V121.402H244.973ZM265.833 121.402V102.092H273.037C274.671 102.092 275.983 102.323 276.973 102.785C277.963 103.247 278.681 103.866 279.127 104.642C279.573 105.418 279.795 106.284 279.795 107.241C279.795 108.496 279.441 109.552 278.731 110.41C278.038 111.268 277.006 111.863 275.636 112.193L280.34 121.253V121.402H277.419L272.888 112.564H268.556V121.402H265.833ZM268.556 110.435H272.864C274.349 110.435 275.405 110.171 276.032 109.643C276.66 109.098 276.973 108.339 276.973 107.365C276.973 106.375 276.66 105.624 276.032 105.112C275.405 104.584 274.349 104.32 272.864 104.32H268.556V110.435ZM282.558 121.402V102.092H294.936V104.419H285.331V109.89H292.906V112.118H285.331V119.075H295.085V121.402H282.558ZM298.065 121.402V102.092H304.378C307.712 102.092 310.122 102.942 311.607 104.642C313.109 106.325 313.86 108.694 313.86 111.747C313.86 114.8 313.109 117.177 311.607 118.877C310.122 120.56 307.712 121.402 304.378 121.402H298.065ZM300.863 119.075H304.131C305.798 119.075 307.134 118.811 308.141 118.283C309.164 117.738 309.899 116.921 310.344 115.832C310.806 114.742 311.038 113.381 311.038 111.747C311.038 110.097 310.806 108.735 310.344 107.662C309.899 106.573 309.164 105.764 308.141 105.236C307.134 104.691 305.798 104.419 304.131 104.419H300.863V119.075ZM316.531 121.402V102.092H328.91V104.419H319.304V109.89H326.88V112.118H319.304V119.075H329.058V121.402H316.531ZM332.038 121.402V102.092H344.565V104.419H334.811V109.989H342.535V112.217H334.811V121.402H332.038ZM346.89 121.402V102.092H349.663V121.402H346.89ZM353.624 121.402V102.092H358.674L366.348 119.199H366.943V102.092H369.468V121.402H364.418L356.743 104.295H356.149V121.402H353.624ZM373.337 121.402V102.092H385.716V104.419H376.11V109.89H383.686V112.118H376.11V119.075H385.864V121.402H373.337ZM388.844 121.402V102.092H395.157C398.491 102.092 400.901 102.942 402.386 104.642C403.888 106.325 404.639 108.694 404.639 111.747C404.639 114.8 403.888 117.177 402.386 118.877C400.901 120.56 398.491 121.402 395.157 121.402H388.844ZM391.642 119.075H394.91C396.577 119.075 397.913 118.811 398.92 118.283C399.943 117.738 400.678 116.921 401.123 115.832C401.586 114.742 401.817 113.381 401.817 111.747C401.817 110.097 401.586 108.735 401.123 107.662C400.678 106.573 399.943 105.764 398.92 105.236C397.913 104.691 396.577 104.419 394.91 104.419H391.642V119.075Z" fill="white"/>
</svg>
