<svg width="406" height="181" viewBox="0 0 406 181" fill="none" xmlns="http://www.w3.org/2000/svg">
<g clip-path="url(#clip0_2279_211)">
<path d="M225.166 8.85938V51.7702C225.166 52.9336 225.407 54.0857 225.876 55.1605C226.344 56.2354 227.031 57.2121 227.897 58.0347C228.763 58.8574 229.791 59.51 230.923 59.9552C232.055 60.4004 233.267 60.6296 234.492 60.6296H282.858V53.5331H239.152C237.625 53.5331 236.161 52.9571 235.082 51.9317C234.002 50.9063 233.396 49.5156 233.396 48.0655V33.8534H275.401V26.7634H233.369V12.5705C233.369 11.8503 233.519 11.1372 233.81 10.4722C234.101 9.80715 234.527 9.20326 235.064 8.69521C235.602 8.18715 236.239 7.78494 236.941 7.51168C237.642 7.23841 238.394 7.09947 239.152 7.10283H282.858V0H234.492C233.267 0 232.055 0.229155 230.923 0.67438C229.791 1.11961 228.763 1.77218 227.897 2.59485C227.031 3.41752 226.344 4.39417 225.876 5.46904C225.407 6.54391 225.166 7.69595 225.166 8.85938Z" fill="white"/>
<path d="M158.779 35.0287C158.779 34.4917 159.004 33.9767 159.404 33.597C159.803 33.2172 160.346 33.0039 160.911 33.0039H175.368C187.222 33.0039 194.699 27.7151 194.699 16.2816C194.699 5.97864 187.222 0 175.368 0H136.368C135.159 -3.06502e-07 133.961 0.226392 132.844 0.666239C131.727 1.10609 130.712 1.75076 129.857 2.56343C129.002 3.3761 128.324 4.34083 127.862 5.40249C127.4 6.46415 127.162 7.60192 127.163 8.75079V60.6296H134.452V10.4818C134.452 9.55006 134.841 8.65649 135.535 7.99766C136.229 7.33882 137.169 6.9687 138.15 6.9687H159.532V6.93037H174.924C181.762 6.93037 186.408 9.26817 186.408 16.371C186.408 23.6463 181.762 25.9011 174.924 25.9011H157.509C155.677 25.9011 153.921 26.5922 152.626 27.8224C151.33 29.0526 150.603 30.7212 150.603 32.461V36.6831C150.602 37.7237 150.863 38.7495 151.362 39.6758C151.861 40.6021 152.585 41.4022 153.474 42.0102L180.727 60.6296H194.726L159.667 36.6703C159.392 36.4838 159.168 36.2374 159.013 35.9519C158.859 35.6663 158.779 35.3498 158.779 35.0287Z" fill="white"/>
<path d="M43.7582 4.57329L26 60.6806H34.8421L50.1258 11.6889C50.5359 10.3787 51.3806 9.22933 52.5341 8.41213C53.6876 7.59492 55.0881 7.15357 56.5271 7.15382H65.7794C67.2174 7.15392 68.617 7.59551 69.7693 8.41277C70.9217 9.23003 71.7651 10.3792 72.1739 11.6889L87.4576 60.6806H96.3065L78.5483 4.57329C78.1349 3.26767 77.2897 2.12333 76.1379 1.30991C74.9861 0.49648 73.589 0.0572662 72.1537 0.0573731H50.1527C48.7175 0.0572662 47.3204 0.49648 46.1686 1.30991C45.0168 2.12333 44.1715 3.26767 43.7582 4.57329Z" fill="white"/>
<path d="M327.452 4.57329L309.694 60.6806H318.542L333.826 11.6889C334.235 10.3792 335.078 9.23003 336.231 8.41277C337.383 7.59552 338.783 7.15392 340.221 7.15382H349.473C350.912 7.15357 352.312 7.59492 353.466 8.41213C354.619 9.22934 355.464 10.3787 355.874 11.6889L371.158 60.6806H380L362.242 4.57329C361.829 3.26714 360.984 2.12222 359.832 1.30864C358.68 0.495068 357.283 0.056246 355.847 0.0573752H333.846C332.411 0.0572684 331.014 0.496482 329.862 1.30991C328.71 2.12333 327.865 3.26767 327.452 4.57329Z" fill="white"/>
<path d="M81.5136 116.845C80.116 116.859 78.7412 116.508 77.5397 115.83C76.3576 115.164 75.374 114.223 74.682 113.096C73.9677 111.95 73.5979 110.64 73.6129 109.308V108.816C73.5988 107.487 73.9686 106.179 74.682 105.035C75.3728 103.908 76.3568 102.969 77.5397 102.308C78.7412 101.629 80.116 101.278 81.5136 101.292C82.676 101.286 83.825 101.528 84.8756 102.001C85.9339 102.476 86.8684 103.167 87.6123 104.026L87.9754 104.435L87.0878 105.131L86.7247 104.709C86.0942 103.979 85.301 103.39 84.4023 102.986C83.5035 102.582 82.5215 102.372 81.5271 102.371C80.3297 102.359 79.1521 102.662 78.1247 103.246C77.1163 103.817 76.2748 104.618 75.6771 105.578C75.0686 106.559 74.7525 107.678 74.7627 108.816V109.308C74.7516 110.449 75.0678 111.57 75.6771 112.553C76.2711 113.515 77.1135 114.318 78.1247 114.884C79.1526 115.467 80.3303 115.767 81.5271 115.753C82.522 115.759 83.5057 115.553 84.4054 115.15C85.3051 114.746 86.0977 114.156 86.7247 113.422L87.0878 113L87.9619 113.696L87.5988 114.111C86.8529 114.966 85.9187 115.655 84.8622 116.13C83.8172 116.606 82.6723 116.85 81.5136 116.845Z" fill="white" stroke="white" stroke-width="1.34601" stroke-miterlimit="10"/>
<path d="M135.971 116.826H124.346V101.497H135.971V102.57H125.516V108.587H134.741V109.653H125.516V115.741H135.992L135.971 116.826Z" fill="white" stroke="white" stroke-width="1.34601" stroke-miterlimit="10"/>
<path d="M173.505 116.941H172.362V101.375L186.032 114.29V101.375H187.168V116.89L173.498 103.962L173.505 116.941Z" fill="white" stroke="white" stroke-width="1.34601" stroke-miterlimit="10"/>
<path d="M229.53 116.928H228.393V102.461H222.826V101.375H235.117V102.461H229.536L229.53 116.928Z" fill="white" stroke="white" stroke-width="1.34601" stroke-miterlimit="10"/>
<path d="M283.685 116.941H281.822L273.283 110.643V109.826H278.326C279.009 109.832 279.68 109.662 280.269 109.334C280.847 109.009 281.33 108.552 281.675 108.005C282.018 107.441 282.199 106.801 282.199 106.15C282.199 105.498 282.018 104.858 281.675 104.294C281.333 103.745 280.849 103.288 280.269 102.966C279.682 102.633 279.01 102.46 278.326 102.467H272.099V116.941H270.963V101.375H278.306C279.192 101.365 280.064 101.586 280.827 102.014C281.576 102.437 282.201 103.032 282.643 103.745C283.087 104.472 283.322 105.299 283.322 106.14C283.322 106.981 283.087 107.808 282.643 108.535C282.201 109.248 281.576 109.844 280.827 110.266C280.064 110.694 279.192 110.915 278.306 110.905H275.488L283.685 116.941Z" fill="white" stroke="white" stroke-width="1.34601" stroke-miterlimit="10"/>
<path d="M331.614 116.826H319.988V101.497H331.614V102.57H321.138V108.587H330.363V109.653H321.138V115.741H331.614V116.826Z" fill="white" stroke="white" stroke-width="1.34601" stroke-miterlimit="10"/>
</g>
<path d="M4.50561 174.195L0.816951 155.034V154.885H3.54012L6.75842 172.116H7.35256L11.0907 154.885H15.7944L19.5821 172.116H20.1762L23.345 154.885H25.9196V155.034L22.2805 174.195H17.4531L13.6654 156.99H13.0712L9.30829 174.195H4.50561ZM35.9327 174.542C33.9687 174.542 32.3348 174.137 31.031 173.329C29.7437 172.503 28.7782 171.34 28.1345 169.838C27.5074 168.336 27.1938 166.57 27.1938 164.54C27.1938 162.494 27.5074 160.728 28.1345 159.242C28.7782 157.741 29.7437 156.585 31.031 155.777C32.3348 154.951 33.9687 154.539 35.9327 154.539C37.9132 154.539 39.5471 154.951 40.8344 155.777C42.1217 156.585 43.079 157.741 43.7061 159.242C44.3498 160.728 44.6716 162.494 44.6716 164.54C44.6716 166.57 44.3498 168.336 43.7061 169.838C43.079 171.34 42.1217 172.503 40.8344 173.329C39.5471 174.137 37.9132 174.542 35.9327 174.542ZM35.9327 172.314C37.9462 172.314 39.4316 171.637 40.3888 170.284C41.3625 168.914 41.8494 166.999 41.8494 164.54C41.8494 162.081 41.3625 160.175 40.3888 158.822C39.4316 157.452 37.9462 156.767 35.9327 156.767C33.9192 156.767 32.4256 157.452 31.4519 158.822C30.4946 160.175 30.016 162.081 30.016 164.54C30.016 166.999 30.4946 168.914 31.4519 170.284C32.4256 171.637 33.9192 172.314 35.9327 172.314ZM47.3414 174.195V154.885H54.5454C56.1793 154.885 57.4914 155.116 58.4816 155.578C59.4719 156.041 60.1898 156.659 60.6354 157.435C61.081 158.211 61.3038 159.077 61.3038 160.035C61.3038 161.289 60.949 162.345 60.2393 163.203C59.5462 164.062 58.5147 164.656 57.1448 164.986L61.8485 174.047V174.195H58.9273L54.3969 165.357H50.0646V174.195H47.3414ZM50.0646 163.228H54.3721C55.8575 163.228 56.9138 162.964 57.5409 162.436C58.1681 161.891 58.4816 161.132 58.4816 160.158C58.4816 159.168 58.1681 158.417 57.5409 157.906C56.9138 157.377 55.8575 157.113 54.3721 157.113H50.0646V163.228ZM64.0669 174.195V154.885H66.79V163.055H68.2754L74.7615 154.885H77.856V155.034L70.4539 164.119L78.4749 174.047V174.195H75.1081L68.2754 165.53H66.79V174.195H64.0669ZM76.8584 167.635V165.407H82.7999V167.635H76.8584ZM85.9133 174.195V154.885H88.686V171.868H97.7963V174.195H85.9133ZM100.272 174.195V154.885H103.045V174.195H100.272ZM107.006 174.195V154.885H119.532V157.212H109.778V162.783H117.502V165.011H109.778V174.195H107.006ZM121.758 174.195V154.885H134.136V157.212H124.531V162.683H132.106V164.912H124.531V171.868H134.285V174.195H121.758ZM142.618 174.195V154.885H149.253C151.514 154.885 153.173 155.314 154.229 156.173C155.302 157.014 155.838 158.145 155.838 159.564C155.838 160.455 155.599 161.248 155.12 161.941C154.658 162.634 153.94 163.096 152.966 163.327V163.921C154.204 164.136 155.137 164.647 155.764 165.456C156.407 166.248 156.729 167.28 156.729 168.551C156.729 170.234 156.152 171.596 154.996 172.635C153.841 173.675 152.059 174.195 149.649 174.195H142.618ZM145.342 171.967H149.624C151.143 171.967 152.24 171.662 152.917 171.051C153.61 170.424 153.957 169.541 153.957 168.402C153.957 167.296 153.618 166.438 152.942 165.828C152.265 165.217 151.176 164.912 149.674 164.912H145.342V171.967ZM145.342 162.758H149.302C150.59 162.758 151.547 162.527 152.174 162.065C152.801 161.602 153.115 160.893 153.115 159.936C153.115 158.054 151.844 157.113 149.302 157.113H145.342V162.758ZM157.512 174.195V174.047L163.8 154.885H168.256L174.544 174.047V174.195H171.648L166.226 157.039H165.632L160.21 174.195H157.512ZM161.597 168.575L162.364 166.248H169.494L170.261 168.575H161.597ZM176.562 174.195V154.885H179.335V171.868H188.445V174.195H176.562ZM188.99 174.195V174.047L195.278 154.885H199.734L206.022 174.047V174.195H203.126L197.704 157.039H197.11L191.688 174.195H188.99ZM193.075 168.575L193.842 166.248H200.972L201.739 168.575H193.075ZM208.041 174.195V154.885H213.091L220.765 171.992H221.359V154.885H223.884V174.195H218.834L211.16 157.089H210.566V174.195H208.041ZM235.032 174.566C232.375 174.566 230.296 173.692 228.794 171.942C227.309 170.176 226.566 167.709 226.566 164.54C226.566 161.355 227.317 158.888 228.819 157.138C230.321 155.389 232.392 154.514 235.032 154.514C236.567 154.514 237.896 154.811 239.018 155.405C240.157 155.983 241.056 156.8 241.717 157.856C242.393 158.912 242.798 160.15 242.93 161.569H240.132C239.967 160.101 239.431 158.929 238.523 158.054C237.632 157.179 236.452 156.742 234.983 156.742C233.184 156.742 231.798 157.427 230.824 158.797C229.867 160.15 229.388 162.065 229.388 164.54C229.388 167.032 229.875 168.955 230.849 170.308C231.839 171.662 233.209 172.338 234.958 172.338C236.51 172.338 237.723 171.876 238.597 170.952C239.489 170.028 240 168.881 240.132 167.511H242.93C242.798 168.914 242.393 170.152 241.717 171.224C241.056 172.281 240.165 173.106 239.043 173.7C237.921 174.278 236.584 174.566 235.032 174.566ZM244.973 174.195V154.885H257.351V157.212H247.746V162.683H255.321V164.912H247.746V171.868H257.499V174.195H244.973ZM265.833 174.195V154.885H273.037C274.671 154.885 275.983 155.116 276.973 155.578C277.963 156.041 278.681 156.659 279.127 157.435C279.573 158.211 279.795 159.077 279.795 160.035C279.795 161.289 279.441 162.345 278.731 163.203C278.038 164.062 277.006 164.656 275.636 164.986L280.34 174.047V174.195H277.419L272.888 165.357H268.556V174.195H265.833ZM268.556 163.228H272.864C274.349 163.228 275.405 162.964 276.032 162.436C276.66 161.891 276.973 161.132 276.973 160.158C276.973 159.168 276.66 158.417 276.032 157.906C275.405 157.377 274.349 157.113 272.864 157.113H268.556V163.228ZM282.558 174.195V154.885H294.936V157.212H285.331V162.683H292.906V164.912H285.331V171.868H295.085V174.195H282.558ZM298.065 174.195V154.885H304.378C307.712 154.885 310.122 155.735 311.607 157.435C313.109 159.119 313.86 161.487 313.86 164.54C313.86 167.593 313.109 169.97 311.607 171.67C310.122 173.353 307.712 174.195 304.378 174.195H298.065ZM300.863 171.868H304.131C305.798 171.868 307.134 171.604 308.141 171.076C309.164 170.531 309.899 169.714 310.344 168.625C310.806 167.536 311.038 166.174 311.038 164.54C311.038 162.89 310.806 161.528 310.344 160.455C309.899 159.366 309.164 158.557 308.141 158.029C307.134 157.485 305.798 157.212 304.131 157.212H300.863V171.868ZM316.531 174.195V154.885H328.91V157.212H319.304V162.683H326.88V164.912H319.304V171.868H329.058V174.195H316.531ZM332.038 174.195V154.885H344.565V157.212H334.811V162.783H342.535V165.011H334.811V174.195H332.038ZM346.89 174.195V154.885H349.663V174.195H346.89ZM353.624 174.195V154.885H358.674L366.348 171.992H366.943V154.885H369.468V174.195H364.418L356.743 157.089H356.149V174.195H353.624ZM373.337 174.195V154.885H385.716V157.212H376.11V162.683H383.686V164.912H376.11V171.868H385.864V174.195H373.337ZM388.844 174.195V154.885H395.157C398.491 154.885 400.901 155.735 402.386 157.435C403.888 159.119 404.639 161.487 404.639 164.54C404.639 167.593 403.888 169.97 402.386 171.67C400.901 173.353 398.491 174.195 395.157 174.195H388.844ZM391.642 171.868H394.91C396.577 171.868 397.913 171.604 398.92 171.076C399.943 170.531 400.678 169.714 401.123 168.625C401.586 167.536 401.817 166.174 401.817 164.54C401.817 162.89 401.586 161.528 401.123 160.455C400.678 159.366 399.943 158.557 398.92 158.029C397.913 157.485 396.577 157.212 394.91 157.212H391.642V171.868Z" fill="white"/>
<defs>
<clipPath id="clip0_2279_211">
<rect width="354" height="118.449" fill="white" transform="translate(26)"/>
</clipPath>
</defs>
</svg>
