<svg width="99" height="89" viewBox="0 0 99 89" fill="none" xmlns="http://www.w3.org/2000/svg">
<path d="M24.8366 6.70246L0 89H12.3742L33.7367 17.1517C34.3112 15.2294 35.493 13.5431 37.1065 12.3435C38.7199 11.1439 40.6788 10.4949 42.692 10.4932H55.6176C57.6308 10.4949 59.5897 11.1439 61.2031 12.3435C62.8166 13.5431 63.9984 15.2294 64.5729 17.1517L85.9354 89H98.3096L73.473 6.70246C72.8909 4.79419 71.7082 3.12306 70.0996 1.93591C68.4909 0.74876 66.5417 0.108555 64.5398 0.109865H33.7698C31.7679 0.108555 29.8187 0.74876 28.21 1.93591C26.6014 3.12306 25.4187 4.79419 24.8366 6.70246Z" fill="white"/>
</svg>
