<svg width="32" height="33" viewBox="0 0 32 33" fill="none" xmlns="http://www.w3.org/2000/svg">
<path d="M16 18.8672C15.0111 18.8672 14.0444 18.5739 13.2222 18.0245C12.3999 17.4751 11.759 16.6942 11.3806 15.7806C11.0022 14.867 10.9031 13.8616 11.0961 12.8917C11.289 11.9218 11.7652 11.0309 12.4645 10.3317C13.1637 9.63239 14.0546 9.15619 15.0246 8.96326C15.9945 8.77034 16.9998 8.86935 17.9134 9.24779C18.8271 9.62623 19.6079 10.2671 20.1574 11.0893C20.7068 11.9116 21 12.8783 21 13.8672C20.9984 15.1928 20.4711 16.4636 19.5338 17.401C18.5964 18.3383 17.3256 18.8656 16 18.8672ZM16 10.8672C15.4067 10.8672 14.8266 11.0431 14.3333 11.3728C13.8399 11.7024 13.4554 12.171 13.2284 12.7191C13.0013 13.2673 12.9419 13.8705 13.0576 14.4525C13.1734 15.0344 13.4591 15.569 13.8787 15.9885C14.2982 16.4081 14.8328 16.6938 15.4147 16.8095C15.9967 16.9253 16.5999 16.8659 17.1481 16.6388C17.6962 16.4118 18.1648 16.0273 18.4944 15.5339C18.8241 15.0406 19 14.4605 19 13.8672C18.9992 13.0718 18.6829 12.3092 18.1204 11.7467C17.558 11.1843 16.7954 10.868 16 10.8672Z" fill="black"/>
<path d="M16 30.8672L7.56401 20.9182C7.44679 20.7688 7.33079 20.6185 7.21601 20.4672C5.77499 18.569 4.99652 16.2504 5.00001 13.8672C5.00001 10.9498 6.15894 8.15191 8.22184 6.08901C10.2847 4.02611 13.0826 2.86719 16 2.86719C18.9174 2.86719 21.7153 4.02611 23.7782 6.08901C25.8411 8.15191 27 10.9498 27 13.8672C27.0035 16.2493 26.2254 18.5668 24.785 20.4642L24.784 20.4672C24.784 20.4672 24.484 20.8612 24.439 20.9142L16 30.8672ZM8.81301 19.2622C8.81301 19.2622 9.04601 19.5702 9.09901 19.6362L16 27.7752L22.91 19.6252C22.954 19.5702 23.188 19.2602 23.189 19.2592C24.3662 17.7083 25.0023 15.8142 25 13.8672C25 11.4802 24.0518 9.19105 22.364 7.50323C20.6761 5.8154 18.387 4.86719 16 4.86719C13.6131 4.86719 11.3239 5.8154 9.63605 7.50323C7.94822 9.19105 7.00001 11.4802 7.00001 13.8672C6.99791 15.8154 7.63479 17.7106 8.81301 19.2622Z" fill="black"/>
</svg>
