<svg width="495" height="89" viewBox="0 0 495 89" fill="none" xmlns="http://www.w3.org/2000/svg">
<g clip-path="url(#clip0_97_548)">
<path d="M278.496 12.9984V75.9247C278.496 79.3702 279.869 82.6747 282.314 85.1121C284.758 87.5494 288.074 88.9202 291.532 88.9231H359.16V78.5068H298.017C295.882 78.5068 293.834 77.6617 292.324 76.1575C290.814 74.6533 289.966 72.6131 289.966 70.4858V49.6093H348.705V39.2479H289.966V18.4373C289.966 16.31 290.814 14.2698 292.324 12.7656C293.834 11.2614 295.882 10.4163 298.017 10.4163H359.16V0H291.532C288.074 0.0029125 284.758 1.37367 282.314 3.81102C279.869 6.24838 278.496 9.55291 278.496 12.9984Z" fill="white"/>
<path d="M185.667 51.3673C185.667 50.5805 185.981 49.8259 186.54 49.2695C187.098 48.7132 187.855 48.4006 188.645 48.4006H208.861C225.404 48.4006 235.892 40.7093 235.892 23.8872C235.892 8.79012 225.437 0 208.861 0H154.324C152.632 0 150.957 0.33195 149.394 0.976898C147.831 1.62185 146.411 2.56716 145.215 3.75887C144.019 4.95058 143.07 6.36534 142.423 7.92238C141.776 9.47942 141.442 11.1483 141.442 12.8336V88.9231H151.644V15.3827C151.644 14.0179 152.187 12.7088 153.155 11.7427C154.123 10.7766 155.435 10.2324 156.805 10.2295H186.704V10.1636H208.221C217.794 10.1636 224.29 13.5917 224.29 24.008C224.29 34.677 217.794 37.9843 208.221 37.9843H183.892C181.335 37.9901 178.885 39.0053 177.078 40.8073C175.272 42.6094 174.256 45.0515 174.253 47.5985V53.8395C174.251 55.3658 174.614 56.8706 175.312 58.2292C176.01 59.5878 177.023 60.7611 178.267 61.6517L216.371 88.967H235.958L186.903 53.8395C186.521 53.5616 186.21 53.1979 185.995 52.7779C185.78 52.3579 185.668 51.8935 185.667 51.4222" fill="white"/>
<path d="M24.8366 6.70246L0 89H12.3742L33.7367 17.1517C34.3112 15.2294 35.493 13.5431 37.1065 12.3435C38.7199 11.1439 40.6788 10.4949 42.692 10.4932H55.6176C57.6308 10.4949 59.5897 11.1439 61.2031 12.3435C62.8166 13.5431 63.9984 15.2294 64.5729 17.1517L85.9354 89H98.3096L73.473 6.70246C72.8909 4.79419 71.7082 3.12306 70.0996 1.93591C68.4909 0.74876 66.5417 0.108555 64.5398 0.109865H33.7698C31.7679 0.108555 29.8187 0.74876 28.21 1.93591C26.6014 3.12306 25.4187 4.79419 24.8366 6.70246Z" fill="white"/>
<path d="M421.527 6.70246L396.69 89H409.065L430.427 17.1517C431.002 15.2294 432.183 13.5431 433.797 12.3435C435.41 11.1439 437.369 10.4949 439.382 10.4932H452.308C454.321 10.4949 456.28 11.1439 457.894 12.3435C459.507 13.5431 460.689 15.2294 461.263 17.1517L482.637 89H495L470.163 6.70246C469.581 4.79419 468.399 3.12306 466.79 1.93591C465.181 0.74876 463.232 0.108555 461.23 0.109865H430.46C428.458 0.108555 426.509 0.74876 424.9 1.93591C423.292 3.12306 422.109 4.79419 421.527 6.70246Z" fill="white"/>
</g>
<defs>
<clipPath id="clip0_97_548">
<rect width="495" height="89" fill="white"/>
</clipPath>
</defs>
</svg>
