<svg width="61" height="61" viewBox="0 0 61 61" fill="none" xmlns="http://www.w3.org/2000/svg">
<path d="M45.1038 15.881C44.3955 13.9985 43.2968 12.2872 41.88 10.8595C40.4633 9.4318 38.7604 8.32006 36.8834 7.59732L36.5965 7.48437C34.7153 6.74403 32.6987 6.41076 30.6794 6.50655C28.6601 6.60233 26.684 7.125 24.8814 8.04009C23.4283 8.77701 22.153 9.82122 21.1439 11.1003C20.1347 12.3794 19.416 13.8627 19.0374 15.4473C17.6955 21.1286 18.5698 26.688 20.3363 30.7113C20.3963 31.5224 20.3858 32.3372 20.3047 33.1465C20.2305 34.0123 20.0343 34.8633 19.7219 35.6743L15.0164 47.6988C14.4808 49.0768 14.5145 50.6111 15.1101 51.9642C15.7058 53.3173 16.8145 54.3784 18.1925 54.914C19.5705 55.4496 21.1048 55.4159 22.4579 54.8203C23.811 54.2246 24.8721 53.1159 25.4077 51.7379L30.0477 39.876C30.4196 38.9096 30.9544 38.0141 31.629 37.2284C32.0828 36.705 32.5647 36.2065 33.0725 35.7352C37.116 33.971 41.5662 30.4402 44.4306 25.2897C45.2181 23.8639 45.6861 22.284 45.8023 20.6594C45.9186 19.0348 45.6802 17.4044 45.1038 15.881ZM26.5508 38.5228L25.7624 40.5333C24.5367 40.347 23.3819 39.8405 22.4146 39.065L23.2097 37.0319C23.3894 36.555 23.5403 36.0676 23.6615 35.5726C24.1296 35.9885 24.6641 36.323 25.2428 36.562L25.5975 36.6998C26.1264 36.8922 26.6819 37.0019 27.2443 37.0251C26.981 37.5089 26.7494 38.0092 26.5508 38.5228ZM21.9153 50.3735C21.7318 50.8135 21.3836 51.1645 20.945 51.3514C20.5064 51.5383 20.0121 51.5464 19.5676 51.3739C19.1231 51.2015 18.7636 50.8622 18.5658 50.4284C18.368 49.9946 18.3475 49.5006 18.5088 49.052L21.014 42.6455C22.0443 43.3122 23.1812 43.7973 24.3754 44.0799L21.9153 50.3735ZM41.1551 23.4667C37.5859 29.88 31.0371 33.2933 27.6803 33.2933C27.4377 33.305 27.1949 33.276 26.9619 33.2074L26.6118 33.0696C24.8701 32.392 20.5916 25.1632 22.6811 16.3193C22.9324 15.2626 23.411 14.2734 24.0836 13.4205C24.7562 12.5677 25.6066 11.8717 26.5756 11.3811C27.9089 10.7035 29.3709 10.317 30.8649 10.2472C32.3588 10.1775 33.8505 10.4262 35.2411 10.9768L35.5348 11.0897C36.9193 11.6239 38.1754 12.4446 39.2206 13.498C40.2659 14.5514 41.0768 15.8139 41.6001 17.2025C41.9843 18.2165 42.1435 19.3019 42.0667 20.3836C41.9898 21.4652 41.6788 22.5172 41.1551 23.4667Z" fill="white"/>
</svg>
