<svg width="61" height="61" viewBox="0 0 61 61" fill="none" xmlns="http://www.w3.org/2000/svg">
<path d="M44.3874 48.2685L43.3003 14.337C43.266 13.1018 42.7499 11.9291 41.8623 11.0695C40.9746 10.2099 39.786 9.73167 38.5503 9.73698H21.6059C20.3703 9.73167 19.1816 10.2099 18.294 11.0695C17.4064 11.9291 16.8902 13.1018 16.8559 14.337L15.7689 48.2685H10.0781V52.0462H50.0781V48.2685H44.3874ZM19.5485 48.2685L20.6337 14.4574C20.6409 14.2042 20.7469 13.9639 20.9289 13.7878C21.1109 13.6117 21.3545 13.5137 21.6078 13.5148H38.5522C38.8048 13.5147 39.0475 13.6131 39.2287 13.7891C39.4099 13.9651 39.5153 14.2048 39.5226 14.4574L40.6059 48.2685H19.5485Z" fill="white"/>
<path d="M33.6171 33.3333L33.3097 33.437C32.733 33.6292 32.1097 33.6302 31.5324 33.4397C30.9552 33.2491 30.4549 32.8773 30.106 32.3796L27.8671 29.1814C27.519 28.6834 27.3411 28.0863 27.3598 27.479C27.3785 26.8717 27.5928 26.2867 27.9708 25.811L28.1726 25.5573C28.4816 25.1695 28.6569 24.6921 28.6722 24.1965C28.6876 23.7009 28.5422 23.2136 28.2578 22.8073L27.1467 21.224L23.8337 25.4203C23.4582 25.8956 23.2459 26.4794 23.2286 27.0849C23.2112 27.6904 23.3897 28.2854 23.7374 28.7814L29.0634 36.4036C29.4105 36.9005 29.9087 37.272 30.4838 37.4632C31.059 37.6544 31.6805 37.6549 32.256 37.4647L37.3374 35.7888L36.2263 34.2055C35.9435 33.7983 35.5367 33.4934 35.0665 33.3362C34.5963 33.1791 34.0879 33.178 33.6171 33.3333Z" fill="white"/>
</svg>
