<svg width="64" height="61" viewBox="0 0 64 61" fill="none" xmlns="http://www.w3.org/2000/svg">
<path d="M1.40575 37.5597L19.508 40.1782C19.557 40.1824 19.6062 40.1824 19.6552 40.1782C19.9055 40.1784 20.1477 40.0889 20.3377 39.9259C20.5278 39.7629 20.6531 39.5371 20.6909 39.2896L21.6601 33.0001C21.6821 32.8584 21.6745 32.7136 21.6377 32.575C21.6009 32.4364 21.5357 32.3069 21.4462 32.1948C21.3581 32.082 21.2479 31.9883 21.1223 31.9196C20.9967 31.8508 20.8585 31.8084 20.7159 31.7949L12.4965 31.1174L24.348 19.8712C24.4496 19.7723 24.5303 19.654 24.5852 19.5232C24.64 19.3925 24.668 19.2521 24.6674 19.1103V14.3675C24.6674 14.1136 24.575 13.8684 24.4073 13.6778C24.2397 13.4871 24.0084 13.3641 23.7566 13.3317L5.85703 10.902C5.59283 10.8644 5.32431 10.9299 5.10716 11.0851C4.89001 11.2402 4.7409 11.4729 4.69075 11.735L3.52726 17.9524C3.50127 18.0908 3.50362 18.233 3.53416 18.3704C3.56471 18.5079 3.62282 18.6377 3.70497 18.7521C3.78519 18.8665 3.88786 18.9635 4.00672 19.037C4.12559 19.1105 4.25818 19.1591 4.39641 19.1797L11.7356 20.2405L0.797618 31.3479C0.610061 31.5456 0.506534 31.8084 0.508826 32.0809V36.5239C0.509477 36.7753 0.600375 37.0182 0.764982 37.2083C0.92959 37.3984 1.15697 37.5231 1.40575 37.5597ZM2.60257 32.5086L14.6902 20.2349C14.826 20.0968 14.921 19.9238 14.9646 19.7351C15.0082 19.5463 14.9987 19.3492 14.9372 19.1655C14.8757 18.9818 14.7646 18.8187 14.6161 18.6943C14.4676 18.5698 14.2876 18.4889 14.0959 18.4605L5.78483 17.2637L6.56235 13.1234L22.5764 15.2866V18.6605L9.3503 31.2257C9.20426 31.3651 9.10152 31.5436 9.05438 31.7399C9.00725 31.9362 9.01771 32.1419 9.08453 32.3324C9.15135 32.5229 9.27169 32.6901 9.43112 32.8139C9.59055 32.9378 9.78231 33.013 9.98342 33.0306L19.4247 33.8081L18.786 37.9734L2.60257 35.6159V32.5086Z" fill="white"/>
<path d="M42.0171 33.3666V29.479C42.0172 29.2256 41.9252 28.9807 41.7581 28.7902C41.591 28.5996 41.3603 28.4763 41.1091 28.4433L26.389 26.4523C26.1249 26.4154 25.8567 26.4812 25.6397 26.6362C25.4227 26.7912 25.2735 27.0235 25.2227 27.2853L24.2647 32.3781C24.2385 32.517 24.2408 32.6597 24.2712 32.7977C24.3017 32.9358 24.3599 33.0662 24.4421 33.1811C24.5244 33.2961 24.6291 33.3932 24.7498 33.4666C24.8706 33.54 25.0051 33.5881 25.145 33.6082L30.8153 34.4412L22.0793 43.2966C21.9836 43.3931 21.9078 43.5075 21.8563 43.6333C21.8049 43.7591 21.7787 43.8938 21.7794 44.0297V47.6951C21.7795 47.9467 21.8702 48.1899 22.0349 48.3801C22.1996 48.5703 22.4273 48.6948 22.6764 48.7309L37.5575 50.8885C37.6074 50.8926 37.6575 50.8926 37.7074 50.8885C37.9576 50.8882 38.1995 50.7984 38.3894 50.6355C38.5793 50.4726 38.7048 50.2472 38.7432 49.9999L39.5374 44.8294C39.5585 44.6873 39.5504 44.5423 39.5136 44.4034C39.4769 44.2645 39.4122 44.1345 39.3235 44.0214C39.2348 43.9083 39.1236 43.8149 38.997 43.747C38.8703 43.6791 38.7309 43.6383 38.5877 43.6271L32.2454 43.1133L41.6866 34.1386C41.7917 34.0418 41.8754 33.9241 41.9323 33.7931C41.9892 33.6621 42.0181 33.5206 42.0171 33.3777V33.3666ZM39.9233 32.9168L29.1075 43.1911C28.9611 43.3303 28.8581 43.5089 28.8109 43.7053C28.7637 43.9018 28.7743 44.1077 28.8415 44.2982C28.9088 44.4887 29.0297 44.6557 29.1897 44.7791C29.3498 44.9024 29.5421 44.9768 29.7434 44.9933L37.2964 45.6208L36.8327 48.667L23.876 46.7927V44.4684L33.7615 34.4301C33.8976 34.2922 33.9928 34.1191 34.0364 33.9303C34.08 33.7414 34.0703 33.5442 34.0084 33.3605C33.9465 33.1769 33.8348 33.014 33.6858 32.89C33.5368 32.7661 33.3564 32.6859 33.1645 32.6585L26.5251 31.6922L27.0971 28.6543L39.9233 30.3871V32.9168Z" fill="white"/>
<path d="M62.4325 22.9284L47.7152 20.9374C47.4506 20.9011 47.182 20.967 46.9643 21.1218C46.7465 21.2766 46.596 21.5086 46.5434 21.7705L45.5881 26.8604C45.5625 26.9997 45.565 27.1428 45.5956 27.2811C45.6261 27.4194 45.684 27.5502 45.7659 27.6657C45.8482 27.7803 45.9529 27.8771 46.0736 27.9501C46.1944 28.0231 46.3287 28.0709 46.4684 28.0906L52.1387 28.9236L43.4028 37.7901C43.2106 37.986 43.1021 38.2488 43.1001 38.5232V42.1831C43.1002 42.4354 43.1912 42.6793 43.3564 42.87C43.5216 43.0607 43.75 43.1856 43.9998 43.2216L58.8781 45.3681C59.1512 45.4079 59.429 45.3379 59.6507 45.1735C59.8724 45.0091 60.0199 44.7635 60.0611 44.4906L60.858 39.3174C60.8805 39.1758 60.8733 39.0312 60.837 38.8926C60.8006 38.754 60.7359 38.6244 60.647 38.5121C60.5577 38.3994 60.4465 38.306 60.3199 38.2378C60.1934 38.1695 60.0543 38.1277 59.9111 38.115L53.5688 37.5929L63.0101 28.621C63.1126 28.5231 63.1943 28.4055 63.2501 28.2752C63.3059 28.1449 63.3348 28.0046 63.335 27.8629V23.9531C63.3321 23.7022 63.2396 23.4607 63.074 23.2722C62.9084 23.0838 62.6809 22.9608 62.4325 22.9257V22.9284ZM61.244 24.8722V27.4047L50.4282 37.679C50.2817 37.8182 50.1787 37.9968 50.1315 38.1933C50.0843 38.3897 50.095 38.5956 50.1622 38.7862C50.2294 38.9767 50.3504 39.1437 50.5104 39.267C50.6704 39.3903 50.8627 39.4647 51.0641 39.4812L58.6171 40.1115L58.1506 43.1466L45.1966 41.2695V38.948L55.0822 28.9097C55.2163 28.771 55.3097 28.598 55.3521 28.4097C55.3945 28.2215 55.3844 28.0252 55.3228 27.8423C55.2611 27.6594 55.1504 27.497 55.0027 27.3728C54.8549 27.2486 54.6759 27.1674 54.4852 27.1381L47.8485 26.1801L48.4178 23.1422" fill="white"/>
</svg>
