<svg width="61" height="61" viewBox="0 0 61 61" fill="none" xmlns="http://www.w3.org/2000/svg">
<path d="M39.8707 29.4526H44.6067L39.9786 14.0484C39.7541 13.3018 39.295 12.6474 38.6694 12.1822C38.0438 11.7169 37.2849 11.4656 36.5053 11.4654H24.5438C23.7639 11.4652 23.0046 11.7164 22.3787 12.1816C21.7527 12.6469 21.2933 13.3015 21.0687 14.0484L16.4406 29.4526H39.8707ZM22.3817 25.3785L24.5312 18.1207C24.7545 17.3717 25.2138 16.7149 25.8407 16.2482C26.4675 15.7814 27.2284 15.5297 28.0099 15.5305H33.0374C33.8191 15.5296 34.5803 15.7813 35.2075 16.248C35.8346 16.7147 36.2942 17.3716 36.5179 18.1207L38.6656 25.3713L22.3817 25.3785Z" fill="white"/>
<path d="M45.6878 50.3178H50.7656L49.2565 45.3011H44.1787L45.6878 50.3178Z" fill="white"/>
<path d="M42.4232 39.4571H47.501L45.9919 34.4404H40.9141L42.4232 39.4571Z" fill="white"/>
<path d="M17.3525 45.3011H12.273L10.7656 50.3178H15.8434L17.3525 45.3011Z" fill="white"/>
<path d="M20.6172 34.4404H15.5394L14.0303 39.4571H19.1081L20.6172 34.4404Z" fill="white"/>
<path d="M33.6633 45.3011H28.7996V50.3178H33.6633V45.3011Z" fill="white"/>
<path d="M33.6633 34.4404H28.7996V39.4571H33.6633V34.4404Z" fill="white"/>
</svg>
