<svg width="61" height="61" viewBox="0 0 61 61" fill="none" xmlns="http://www.w3.org/2000/svg">
<path d="M43.9424 28.7059C43.7957 28.2185 43.496 27.7913 43.0877 27.4875C42.6794 27.1836 42.184 27.0194 41.6751 27.0189H33.8655C33.358 27.0212 32.8646 27.1864 32.458 27.4901C32.0515 27.7938 31.7531 28.22 31.6069 28.7059L26.6032 45.3345C26.4546 45.8177 26.1551 46.2405 25.7486 46.541C25.3421 46.8415 24.8501 47.0038 24.3446 47.0042H21.0626C20.5526 47.0043 20.0561 46.8397 19.6472 46.5347C19.2383 46.2298 18.9389 45.8009 18.7936 45.3119L14.2208 29.8787L28.1425 30.0698L28.9278 27.0189H10.2369L16.535 47.9701C16.681 48.4561 16.9794 48.8822 17.3861 49.1857C17.7927 49.4891 18.2862 49.6538 18.7936 49.6554H26.6449C27.1637 49.6555 27.6686 49.4879 28.0844 49.1776C28.5002 48.8674 28.8046 48.431 28.9521 47.9337L33.8655 31.3659C34.0106 30.879 34.3086 30.4517 34.7153 30.1472C35.1221 29.8428 35.616 29.6774 36.1241 29.6754H39.4043C39.916 29.6726 40.4148 29.8358 40.8258 30.1407C41.2368 30.4455 41.5379 30.8754 41.6838 31.3659L46.2653 46.8287H34.5361L33.7508 49.6554H50.2369L43.9424 28.7059Z" fill="white"/>
<path d="M37.5904 23.2471C38.69 23.2471 39.7649 22.921 40.6792 22.3101C41.5935 21.6992 42.3061 20.8309 42.7269 19.815C43.1477 18.7991 43.2578 17.6812 43.0433 16.6028C42.8287 15.5243 42.2992 14.5337 41.5217 13.7561C40.7442 12.9786 39.7535 12.4491 38.6751 12.2346C37.5966 12.0201 36.4787 12.1302 35.4628 12.551C34.4469 12.9718 33.5786 13.6843 32.9677 14.5986C32.3568 15.5129 32.0308 16.5878 32.0308 17.6874C32.0308 19.1619 32.6165 20.576 33.6591 21.6187C34.7018 22.6613 36.1159 23.2471 37.5904 23.2471ZM37.5904 15.0917C38.1037 15.0921 38.6054 15.2446 39.032 15.53C39.4586 15.8155 39.7911 16.221 39.9873 16.6953C40.1835 17.1696 40.2346 17.6915 40.1343 18.1949C40.0339 18.6983 39.7866 19.1606 39.4235 19.5234C39.0604 19.8863 38.5979 20.1333 38.0944 20.2333C37.591 20.3333 37.0692 20.2818 36.595 20.0853C36.1208 19.8888 35.7155 19.5561 35.4303 19.1293C35.1452 18.7025 34.993 18.2007 34.993 17.6874C34.9953 16.9992 35.2697 16.3399 35.7563 15.8533C36.2429 15.3667 36.9023 15.0923 37.5904 15.09V15.0917Z" fill="white"/>
<path d="M20.6021 23.2471C21.7017 23.2471 22.7766 22.921 23.6909 22.3101C24.6052 21.6992 25.3178 20.8309 25.7386 19.815C26.1594 18.7991 26.2695 17.6812 26.055 16.6028C25.8404 15.5243 25.3109 14.5337 24.5334 13.7561C23.7559 12.9786 22.7652 12.4491 21.6868 12.2346C20.6083 12.0201 19.4904 12.1302 18.4745 12.551C17.4587 12.9718 16.5904 13.6843 15.9795 14.5986C15.3685 15.5129 15.0425 16.5878 15.0425 17.6874C15.0425 19.1619 15.6282 20.576 16.6709 21.6187C17.7135 22.6613 19.1276 23.2471 20.6021 23.2471ZM20.6021 15.0917C21.1155 15.0917 21.6174 15.244 22.0442 15.5292C22.4711 15.8144 22.8038 16.2198 23.0002 16.6941C23.1967 17.1684 23.2481 17.6903 23.1479 18.1938C23.0478 18.6973 22.8006 19.1598 22.4376 19.5228C22.0745 19.8858 21.612 20.133 21.1085 20.2332C20.605 20.3334 20.0831 20.2819 19.6088 20.0855C19.1345 19.889 18.7291 19.5563 18.4439 19.1295C18.1587 18.7026 18.0065 18.2008 18.0065 17.6874C18.0088 16.9995 18.2829 16.3405 18.7691 15.8539C19.2554 15.3673 19.9143 15.0928 20.6021 15.09V15.0917Z" fill="white"/>
</svg>
