<svg width="61" height="61" viewBox="0 0 61 61" fill="none" xmlns="http://www.w3.org/2000/svg">
<path d="M45.7843 12.0671H38.1457V12.0817H10.7456L18.9029 39.2057C19.0926 39.8353 19.4796 40.3871 20.0069 40.7799C20.5341 41.1727 21.1737 41.3857 21.8312 41.3873H31.9357C32.5932 41.3857 33.2328 41.1727 33.76 40.7799C34.2873 40.3871 34.6743 39.8353 34.864 39.2057L38.6979 26.4783H46.3846L47.1752 23.8617L49.3087 16.815L50.7456 12.0671H45.7843ZM31.9483 35.7609C31.7603 36.3944 31.3727 36.9503 30.8431 37.3457C30.3136 37.7411 29.6704 37.9548 29.0096 37.955H24.7594C24.1003 37.9525 23.4596 37.7378 22.9321 37.3426C22.4047 36.9474 22.0186 36.3927 21.8312 35.7609L15.8931 15.7483H37.878L31.9483 35.7609ZM43.6509 22.7929H39.8044L41.9232 15.7483H45.7843L43.6509 22.7929Z" fill="white"/>
<path d="M41.2957 46.1875H12.4733V49.716H41.2957V46.1875Z" fill="white"/>
</svg>
