<svg width="61" height="61" viewBox="0 0 61 61" fill="none" xmlns="http://www.w3.org/2000/svg">
<g clip-path="url(#clip0_2493_205)">
<path d="M17.0903 28.2778C18.5066 28.2778 19.8912 27.8558 21.0688 27.0652C22.2464 26.2746 23.1642 25.1509 23.7061 23.8361C24.248 22.5214 24.3897 21.0747 24.1132 19.6791C23.8367 18.2835 23.1545 17.0016 22.1528 15.9956C21.1511 14.9895 19.875 14.3045 18.4858 14.0272C17.0966 13.7498 15.6568 13.8927 14.3484 14.4375C13.04 14.9824 11.9218 15.9049 11.1352 17.0883C10.3487 18.2717 9.9291 19.6629 9.92957 21.0859C9.92957 22.0305 10.1148 22.966 10.4747 23.8387C10.8346 24.7114 11.3621 25.5043 12.027 26.1722C12.692 26.8401 13.4814 27.3698 14.3502 27.7311C15.2189 28.0924 16.15 28.2781 17.0903 28.2778ZM17.0903 17.726C17.7517 17.726 18.3982 17.9231 18.9482 18.2923C19.4981 18.6615 19.9268 19.1862 20.1799 19.8001C20.433 20.4141 20.4992 21.0896 20.3702 21.7414C20.2411 22.3931 19.9226 22.9918 19.455 23.4617C18.9873 23.9316 18.3914 24.2516 17.7427 24.3812C17.094 24.5108 16.4216 24.4443 15.8105 24.19C15.1994 23.9357 14.6772 23.5051 14.3097 22.9525C13.9422 22.4 13.7461 21.7504 13.7461 21.0859C13.7473 20.1952 14.1001 19.3413 14.727 18.7115C15.3538 18.0817 16.2037 17.7273 17.0903 17.726Z" fill="white"/>
<path d="M43.7802 28.2778C45.1966 28.2783 46.5814 27.8567 47.7593 27.0664C48.9373 26.276 49.8554 25.1524 50.3977 23.8378C50.94 22.5231 51.082 21.0763 50.8058 19.6806C50.5295 18.2848 49.8475 17.0027 48.8459 15.9964C47.8443 14.9901 46.5682 14.3049 45.1789 14.0273C43.7897 13.7498 42.3497 13.8925 41.0412 14.4373C39.7326 14.9821 38.6143 15.9046 37.8276 17.0881C37.041 18.2715 36.6214 19.6628 36.6218 21.0859C36.6224 22.9931 37.3768 24.8221 38.7191 26.1707C40.0615 27.5193 41.8819 28.2772 43.7802 28.2778ZM43.7802 17.726C44.4418 17.7251 45.0888 17.9214 45.6394 18.29C46.1899 18.6586 46.6193 19.183 46.8731 19.7969C47.127 20.4107 47.1939 21.0864 47.0654 21.7385C46.9369 22.3905 46.6187 22.9896 46.1512 23.46C45.6837 23.9304 45.0879 24.2508 44.439 24.3808C43.7902 24.5109 43.1176 24.4446 42.5062 24.1904C41.8949 23.9363 41.3723 23.5056 41.0046 22.953C40.637 22.4004 40.4407 21.7506 40.4407 21.0859C40.4413 20.1958 40.7932 19.3423 41.4192 18.7125C42.0452 18.0826 42.8943 17.7279 43.7802 17.726Z" fill="white"/>
<path d="M60.2543 44.0548H54.4167L51.8104 35.3447C51.621 34.7167 51.2363 34.1662 50.7127 33.774C50.1891 33.3817 49.5541 33.1684 48.901 33.1653H38.838C38.1832 33.1664 37.5462 33.3788 37.0207 33.7712C36.4952 34.1635 36.109 34.7151 35.9191 35.3447L33.3129 44.0548H27.7268L25.1205 35.3447C24.9305 34.7147 24.544 34.1629 24.0181 33.7705C23.4921 33.3781 22.8545 33.1659 22.1994 33.1653H12.148C11.4929 33.1659 10.8553 33.3781 10.3294 33.7705C9.80338 34.1629 9.41688 34.7147 9.22689 35.3447L6.62065 44.0548H0.254272V47.8916H9.4525L12.1363 38.7895C12.3239 38.1566 12.7097 37.6013 13.2363 37.2061C13.763 36.811 14.4025 36.597 15.0598 36.596H19.29C19.9473 36.597 20.5868 36.811 21.1134 37.2061C21.6401 37.6013 22.0259 38.1566 22.2135 38.7895L24.8949 47.8916H36.1424L38.8286 38.7895C39.0161 38.1566 39.4019 37.6013 39.9286 37.2061C40.4553 36.811 41.0947 36.597 41.7521 36.596H45.9822C46.6387 36.598 47.2771 36.8125 47.8029 37.2075C48.3286 37.6026 48.7137 38.1573 48.901 38.7895L51.5848 47.8916H60.2543V44.0548Z" fill="white"/>
</g>
<defs>
<clipPath id="clip0_2493_205">
<rect width="60" height="34" fill="white" transform="translate(0.254272 13.8916)"/>
</clipPath>
</defs>
</svg>
