<svg width="61" height="61" viewBox="0 0 61 61" fill="none" xmlns="http://www.w3.org/2000/svg">
<path d="M22.4222 28.1206C23.4359 28.1203 24.4268 27.8193 25.2695 27.2559C26.1122 26.6924 26.7689 25.8917 27.1566 24.9551C27.5443 24.0184 27.6456 22.9878 27.4476 21.9936C27.2496 20.9994 26.7613 20.0862 26.0443 19.3695C25.3274 18.6528 24.414 18.1648 23.4197 17.9671C22.4254 17.7695 21.3949 17.8711 20.4583 18.2591C19.5218 18.6472 18.7213 19.3042 18.1582 20.1471C17.595 20.99 17.2944 21.981 17.2944 22.9947C17.2944 23.668 17.4271 24.3347 17.6848 24.9567C17.9425 25.5788 18.3202 26.1439 18.7964 26.6199C19.2726 27.0959 19.8379 27.4735 20.46 27.731C21.0821 27.9885 21.7489 28.1209 22.4222 28.1206ZM22.4222 20.6018C22.8959 20.6018 23.359 20.7423 23.7528 21.0055C24.1467 21.2687 24.4536 21.6428 24.6348 22.0805C24.816 22.5182 24.8633 22.9998 24.7708 23.4644C24.6782 23.929 24.45 24.3557 24.1149 24.6905C23.7798 25.0253 23.3529 25.2533 22.8883 25.3455C22.4236 25.4377 21.942 25.39 21.5045 25.2085C21.0669 25.0269 20.6931 24.7197 20.4301 24.3257C20.1672 23.9316 20.0271 23.4684 20.0274 22.9947C20.0284 22.36 20.281 21.7517 20.73 21.3031C21.1789 20.8545 21.7875 20.6022 22.4222 20.6018Z" fill="white"/>
<path d="M38.9792 28.1206C39.993 28.1206 40.9841 27.82 41.827 27.2568C42.67 26.6935 43.327 25.893 43.7149 24.9563C44.1029 24.0197 44.2044 22.989 44.0066 21.9947C43.8089 21.0004 43.3207 20.087 42.6038 19.3701C41.8869 18.6533 40.9736 18.1651 39.9792 17.9673C38.9849 17.7695 37.9542 17.871 37.0176 18.259C36.081 18.6469 35.2804 19.3039 34.7171 20.1469C34.1539 20.9898 33.8533 21.9809 33.8533 22.9947C33.8533 24.3542 34.3933 25.658 35.3546 26.6193C36.3159 27.5806 37.6197 28.1206 38.9792 28.1206ZM38.9792 20.6018C39.4529 20.6018 39.916 20.7423 40.3098 21.0055C40.7037 21.2687 41.0106 21.6428 41.1918 22.0805C41.373 22.5182 41.4204 22.9998 41.3278 23.4644C41.2353 23.929 41.007 24.3557 40.6719 24.6905C40.3368 25.0253 39.9099 25.2533 39.4453 25.3455C38.9806 25.4377 38.4991 25.39 38.0615 25.2085C37.624 25.0269 37.2501 24.7197 36.9872 24.3257C36.7242 23.9316 36.5841 23.4684 36.5844 22.9947C36.5849 22.3599 36.8374 21.7512 37.2865 21.3025C37.7355 20.8538 38.3444 20.6018 38.9792 20.6018Z" fill="white"/>
<path d="M47.1456 41.1814L44.7328 33.1561C44.5977 32.7067 44.3214 32.3128 43.9447 32.0329C43.568 31.753 43.1112 31.602 42.6419 31.6024H35.4468C34.9775 31.602 34.5206 31.753 34.1439 32.0329C33.7673 32.3128 33.4909 32.7067 33.3559 33.1561L30.943 41.1814H30.5813L28.1702 33.1561C28.0352 32.7067 27.7589 32.3128 27.3822 32.0329C27.0055 31.753 26.5486 31.602 26.0794 31.6024H18.8824C18.4133 31.6026 17.9567 31.7538 17.5801 32.0336C17.2036 32.3134 16.9271 32.707 16.7915 33.1561L14.3805 41.1814H10.7631V43.9144H50.7631V41.1814H47.1456ZM17.2238 41.1814L18.8752 35.6106C19.009 35.1593 19.285 34.7633 19.6621 34.4817C20.0392 34.2001 20.4972 34.0479 20.9679 34.0478H23.9939C24.4646 34.0476 24.9228 34.1997 25.3 34.4814C25.6772 34.763 25.9531 35.1591 26.0866 35.6106L27.738 41.1814H17.2238ZM33.7882 41.1814L35.4395 35.6106C35.5714 35.1582 35.847 34.7611 36.2245 34.4792C36.602 34.1973 37.0611 34.0459 37.5322 34.0478H40.5564C41.0274 34.0475 41.4858 34.1995 41.8633 34.4812C42.2408 34.7628 42.5171 35.159 42.6509 35.6106L44.3023 41.1814H33.7882Z" fill="white"/>
</svg>
