<svg width="27" height="27" viewBox="0 0 27 27" fill="none" xmlns="http://www.w3.org/2000/svg">
<path d="M25.2835 17.9124L19.0267 15.1087L19.0095 15.1007C18.6846 14.9618 18.3303 14.9061 17.9785 14.9385C17.6267 14.971 17.2886 15.0907 16.9947 15.2867C16.9601 15.3095 16.9268 15.3344 16.8951 15.3611L13.6624 18.1169C11.6145 17.1222 9.50009 15.0237 8.50532 13.0023L11.2652 9.72051C11.2917 9.68731 11.317 9.65411 11.3409 9.61825C11.5327 9.32513 11.6491 8.98914 11.6797 8.64018C11.7102 8.29122 11.6541 7.9401 11.5162 7.61809V7.60215L8.70454 1.33473C8.52224 0.914067 8.20879 0.563642 7.81096 0.335767C7.41314 0.107892 6.95228 0.0147887 6.4972 0.0703562C4.69755 0.30717 3.04564 1.19099 1.85 2.55673C0.654362 3.92248 -0.00324186 5.67676 1.20177e-05 7.49192C1.20177e-05 18.0372 8.5797 26.6169 19.125 26.6169C20.9402 26.6202 22.6944 25.9626 24.0602 24.7669C25.4259 23.5713 26.3098 21.9194 26.5466 20.1197C26.6022 19.6648 26.5093 19.2041 26.2817 18.8063C26.0541 18.4085 25.7039 18.0949 25.2835 17.9124ZM19.125 24.4919C14.6178 24.487 10.2967 22.6943 7.10963 19.5073C3.92258 16.3202 2.12993 11.9991 2.12501 7.49192C2.12002 6.19499 2.58727 4.94058 3.43951 3.96297C4.29174 2.98535 5.47069 2.35137 6.75618 2.17942C6.75566 2.18472 6.75566 2.19006 6.75618 2.19536L9.54525 8.43754L6.80001 11.7233C6.77215 11.7554 6.74684 11.7896 6.72431 11.8256C6.52445 12.1323 6.4072 12.4854 6.38393 12.8507C6.36066 13.216 6.43216 13.5812 6.5915 13.9107C7.79478 16.3718 10.2744 18.8328 12.762 20.0347C13.0939 20.1926 13.4612 20.2616 13.8278 20.2351C14.1945 20.2085 14.548 20.0873 14.8538 19.8833C14.8879 19.8604 14.9207 19.8355 14.952 19.809L18.1807 17.0544L24.4229 19.8501H24.4375C24.2677 21.1374 23.6346 22.3188 22.6568 23.1731C21.679 24.0275 20.4235 24.4963 19.125 24.4919Z" fill="black"/>
</svg>
