<svg width="313" height="546" viewBox="0 0 313 546" fill="none" xmlns="http://www.w3.org/2000/svg">
<mask id="path-1-inside-1_2338_188" fill="white">
<path d="M175.988 218.202L0 160.651V189.592L153.629 239.204C157.728 240.499 161.337 243.209 163.923 246.932C166.508 250.656 167.932 255.195 167.983 259.876V290.117C167.989 294.817 166.615 299.394 164.064 303.169C161.514 306.944 157.922 309.715 153.823 311.072L0.494954 361.464V390.358L176.203 331.815C180.289 330.45 183.865 327.678 186.404 323.908C188.943 320.138 190.308 315.571 190.299 310.883L190.127 238.968C190.107 234.282 188.716 229.727 186.159 225.975C183.601 222.223 180.013 219.473 175.924 218.131"/>
</mask>
<path d="M0 160.651L0.756176 158.339L-2.43286 157.296V160.651H0ZM0 189.592H-2.43286V191.363L-0.747644 191.907L0 189.592ZM153.629 239.204L152.882 241.52L152.889 241.522L152.897 241.524L153.629 239.204ZM167.983 259.876H170.416V259.863L170.416 259.85L167.983 259.876ZM167.983 290.117H165.55V290.12L167.983 290.117ZM153.823 311.072L154.583 313.383L154.587 313.382L153.823 311.072ZM0.494954 361.464L-0.264651 359.153L-1.93791 359.703V361.464H0.494954ZM0.494954 390.358H-1.93791V393.733L1.26398 392.666L0.494954 390.358ZM176.203 331.815L176.973 334.123L176.974 334.122L176.203 331.815ZM190.299 310.883L192.732 310.878V310.877L190.299 310.883ZM190.127 238.968L192.56 238.962L192.56 238.958L190.127 238.968ZM176.744 215.889L0.756176 158.339L-0.756176 162.963L175.232 220.514L176.744 215.889ZM-2.43286 160.651V189.592H2.43286V160.651H-2.43286ZM-0.747644 191.907L152.882 241.52L154.377 236.889L0.747644 187.277L-0.747644 191.907ZM152.897 241.524C156.452 242.647 159.628 245.013 161.924 248.32L165.921 245.545C163.046 241.405 159.003 238.351 154.362 236.885L152.897 241.524ZM161.924 248.32C164.222 251.63 165.504 255.691 165.55 259.903L170.416 259.85C170.359 254.698 168.794 249.682 165.921 245.545L161.924 248.32ZM165.55 259.876V290.117H170.416V259.876H165.55ZM165.55 290.12C165.556 294.35 164.318 298.448 162.049 301.807L166.08 304.531C168.912 300.34 170.423 295.284 170.416 290.113L165.55 290.12ZM162.049 301.807C159.781 305.163 156.618 307.584 153.059 308.762L154.587 313.382C159.226 311.846 163.246 308.725 166.08 304.531L162.049 301.807ZM153.063 308.761L-0.264651 359.153L1.25456 363.776L154.583 313.383L153.063 308.761ZM-1.93791 361.464V390.358H2.92781V361.464H-1.93791ZM1.26398 392.666L176.973 334.123L175.434 329.507L-0.274071 388.05L1.26398 392.666ZM176.974 334.122C181.598 332.578 185.601 329.455 188.422 325.267L184.386 322.549C182.13 325.9 178.98 328.322 175.433 329.507L176.974 334.122ZM188.422 325.267C191.241 321.081 192.742 316.036 192.732 310.878L187.866 310.888C187.874 315.106 186.644 319.195 184.386 322.549L188.422 325.267ZM192.732 310.877L192.56 238.962L187.694 238.974L187.866 310.889L192.732 310.877ZM192.56 238.958C192.538 233.803 191.009 228.771 188.169 224.605L184.149 227.345C186.423 230.683 187.676 234.761 187.694 238.978L192.56 238.958ZM188.169 224.605C185.327 220.436 181.311 217.339 176.683 215.819L175.165 220.442C178.716 221.608 181.875 224.011 184.149 227.345L188.169 224.605Z" fill="white" mask="url(#path-1-inside-1_2338_188)"/>
<mask id="path-3-inside-2_2338_188" fill="white">
<path d="M209.966 196.278L251.779 0L274.59 14.4113L237.533 185.41C236.548 189.985 236.933 194.786 238.631 199.102C240.329 203.418 243.25 207.017 246.959 209.366L270.846 224.439C274.564 226.808 278.883 227.787 283.152 227.229C287.421 226.671 291.41 224.606 294.517 221.344L410.38 100.076L433.212 114.487L299.79 252.931C296.688 256.153 292.722 258.192 288.482 258.745C284.241 259.298 279.951 258.336 276.247 256.002L219.5 220.163C215.799 217.821 212.883 214.235 211.182 209.934C209.481 205.632 209.085 200.845 210.052 196.278"/>
</mask>
<path d="M251.779 0L253.079 -2.05677L250.127 -3.92144L249.4 -0.506895L251.779 0ZM274.59 14.4113L276.968 14.9266L277.328 13.2635L275.89 12.3546L274.59 14.4113ZM237.533 185.41L235.155 184.895L235.155 184.898L237.533 185.41ZM246.959 209.366L245.657 211.421L245.66 211.423L246.959 209.366ZM270.846 224.439L272.153 222.387L272.144 222.381L270.846 224.439ZM294.517 221.344L292.758 219.663L292.756 219.666L294.517 221.344ZM410.38 100.076L411.678 98.0187L409.995 96.9565L408.621 98.3954L410.38 100.076ZM433.212 114.487L434.964 116.176L437.037 114.025L434.511 112.43L433.212 114.487ZM299.79 252.931L298.038 251.242L298.037 251.243L299.79 252.931ZM276.247 256.002L274.948 258.059L274.95 258.06L276.247 256.002ZM219.5 220.163L218.199 222.218L218.201 222.22L219.5 220.163ZM212.346 196.784L254.159 0.506895L249.4 -0.506895L207.587 195.771L212.346 196.784ZM250.48 2.05677L273.291 16.4681L275.89 12.3546L253.079 -2.05677L250.48 2.05677ZM272.212 13.8961L235.155 184.895L239.911 185.925L276.968 14.9266L272.212 13.8961ZM235.155 184.898C234.07 189.937 234.492 195.227 236.367 199.993L240.895 198.211C239.375 194.346 239.027 190.033 239.912 185.922L235.155 184.898ZM236.367 199.993C238.243 204.76 241.486 208.78 245.657 211.421L248.26 207.311C245.013 205.254 242.416 202.075 240.895 198.211L236.367 199.993ZM245.66 211.423L269.547 226.496L272.144 222.381L248.257 207.308L245.66 211.423ZM269.538 226.49C273.726 229.159 278.617 230.276 283.467 229.642L282.837 224.817C279.149 225.299 275.402 224.457 272.153 222.387L269.538 226.49ZM283.467 229.642C288.316 229.008 292.807 226.667 296.279 223.022L292.756 219.666C290.013 222.545 286.527 224.334 282.837 224.817L283.467 229.642ZM296.276 223.024L412.139 101.757L408.621 98.3954L292.758 219.663L296.276 223.024ZM409.081 102.133L431.913 116.545L434.511 112.43L411.678 98.0187L409.081 102.133ZM431.46 112.799L298.038 251.242L301.541 254.619L434.964 116.176L431.46 112.799ZM298.037 251.243C295.299 254.088 291.833 255.855 288.167 256.333L288.796 261.158C293.611 260.53 298.076 258.219 301.542 254.618L298.037 251.243ZM288.167 256.333C284.503 256.811 280.781 255.984 277.544 253.944L274.95 258.06C279.12 260.689 283.979 261.786 288.796 261.158L288.167 256.333ZM277.546 253.945L220.799 218.106L218.201 222.22L274.948 258.059L277.546 253.945ZM220.801 218.107C217.561 216.057 214.967 212.889 213.444 209.039L208.919 210.828C210.799 215.58 214.038 219.585 218.199 222.218L220.801 218.107ZM213.444 209.039C211.92 205.187 211.563 200.886 212.432 196.782L207.672 195.773C206.606 200.803 207.041 206.078 208.919 210.828L213.444 209.039Z" fill="white" mask="url(#path-3-inside-2_2338_188)"/>
<mask id="path-5-inside-3_2338_188" fill="white">
<path d="M301.018 291.96L435 429.789L412.232 444.295L295.832 323.665C292.713 320.422 288.72 318.376 284.452 317.835C280.184 317.294 275.871 318.287 272.16 320.665L248.36 335.832C244.653 338.192 241.741 341.804 240.057 346.13C238.374 350.456 238.01 355.264 239.02 359.835L276.744 530.668L253.933 545.127L211.367 349.038C210.378 344.475 210.754 339.682 212.44 335.372C214.127 331.061 217.033 327.461 220.728 325.106L277.368 289.007C281.066 286.663 285.352 285.684 289.594 286.216C293.836 286.748 297.811 288.761 300.932 291.96"/>
</mask>
<path d="M435 429.789L436.307 431.841L438.827 430.236L436.745 428.093L435 429.789ZM412.232 444.295L410.482 445.984L411.862 447.415L413.54 446.347L412.232 444.295ZM295.832 323.665L294.079 325.351L294.081 325.354L295.832 323.665ZM272.16 320.665L273.468 322.716L273.473 322.713L272.16 320.665ZM248.36 335.832L249.666 337.884L249.667 337.884L248.36 335.832ZM239.02 359.835L241.396 359.311L241.396 359.31L239.02 359.835ZM276.744 530.668L278.047 532.723L279.488 531.81L279.12 530.144L276.744 530.668ZM253.933 545.127L251.556 545.643L252.294 549.046L255.236 547.182L253.933 545.127ZM211.367 349.038L208.99 349.554L208.99 349.555L211.367 349.038ZM220.728 325.106L222.036 327.158L222.036 327.158L220.728 325.106ZM277.368 289.007L276.066 286.952L276.061 286.955L277.368 289.007ZM299.274 293.656L433.256 431.485L436.745 428.093L302.763 290.264L299.274 293.656ZM433.693 427.737L410.925 442.243L413.54 446.347L436.307 431.841L433.693 427.737ZM413.983 442.606L297.583 321.976L294.081 325.354L410.482 445.984L413.983 442.606ZM297.586 321.979C294.1 318.354 289.604 316.036 284.758 315.421L284.146 320.249C287.836 320.716 291.325 322.489 294.079 325.351L297.586 321.979ZM284.758 315.421C279.909 314.807 275.026 315.939 270.848 318.616L273.473 322.713C276.716 320.635 280.458 319.781 284.146 320.249L284.758 315.421ZM270.853 318.613L247.052 333.78L249.667 337.884L273.468 322.716L270.853 318.613ZM247.053 333.78C242.884 336.434 239.65 340.469 237.79 345.248L242.325 347.012C243.831 343.14 246.421 339.95 249.666 337.884L247.053 333.78ZM237.79 345.248C235.931 350.026 235.532 355.323 236.645 360.36L241.396 359.31C240.489 355.204 240.817 350.886 242.325 347.012L237.79 345.248ZM236.644 360.36L274.369 531.193L279.12 530.144L241.396 359.311L236.644 360.36ZM275.442 528.614L252.631 543.072L255.236 547.182L278.047 532.723L275.442 528.614ZM256.311 544.611L213.745 348.522L208.99 349.555L251.556 545.643L256.311 544.611ZM213.745 348.523C212.856 344.423 213.196 340.118 214.706 336.258L210.175 334.485C208.313 339.246 207.9 344.526 208.99 349.554L213.745 348.523ZM214.706 336.258C216.216 332.399 218.8 329.22 222.036 327.158L219.421 323.055C215.265 325.703 212.037 329.723 210.175 334.485L214.706 336.258ZM222.036 327.158L278.676 291.059L276.061 286.955L219.421 323.055L222.036 327.158ZM278.671 291.062C281.904 289.012 285.624 288.17 289.292 288.63L289.897 283.802C285.079 283.198 280.228 284.313 276.066 286.952L278.671 291.062ZM289.292 288.63C292.961 289.09 296.436 290.835 299.191 293.659L302.674 290.261C299.186 286.687 294.712 284.405 289.897 283.802L289.292 288.63Z" fill="white" mask="url(#path-5-inside-3_2338_188)"/>
</svg>
